G04 #@! TF.GenerationSoftware,KiCad,Pcbnew,8.0.0-8.0.0-1~ubuntu20.04.1*
G04 #@! TF.CreationDate,2024-03-05T18:45:29+01:00*
G04 #@! TF.ProjectId,stm32l476,73746d33-326c-4343-9736-2e6b69636164,rev?*
G04 #@! TF.SameCoordinates,Original*
G04 #@! TF.FileFunction,Copper,L2,Bot*
G04 #@! TF.FilePolarity,Positive*
%FSLAX46Y46*%
G04 Gerber Fmt 4.6, Leading zero omitted, Abs format (unit mm)*
G04 Created by KiCad (PCBNEW 8.0.0-8.0.0-1~ubuntu20.04.1) date 2024-03-05 18:45:29*
%MOMM*%
%LPD*%
G01*
G04 APERTURE LIST*
G04 Aperture macros list*
%AMRoundRect*
0 Rectangle with rounded corners*
0 $1 Rounding radius*
0 $2 $3 $4 $5 $6 $7 $8 $9 X,Y pos of 4 corners*
0 Add a 4 corners polygon primitive as box body*
4,1,4,$2,$3,$4,$5,$6,$7,$8,$9,$2,$3,0*
0 Add four circle primitives for the rounded corners*
1,1,$1+$1,$2,$3*
1,1,$1+$1,$4,$5*
1,1,$1+$1,$6,$7*
1,1,$1+$1,$8,$9*
0 Add four rect primitives between the rounded corners*
20,1,$1+$1,$2,$3,$4,$5,0*
20,1,$1+$1,$4,$5,$6,$7,0*
20,1,$1+$1,$6,$7,$8,$9,0*
20,1,$1+$1,$8,$9,$2,$3,0*%
G04 Aperture macros list end*
G04 #@! TA.AperFunction,ComponentPad*
%ADD10C,1.200000*%
G04 #@! TD*
G04 #@! TA.AperFunction,ComponentPad*
%ADD11C,1.600000*%
G04 #@! TD*
G04 #@! TA.AperFunction,ComponentPad*
%ADD12C,3.250000*%
G04 #@! TD*
G04 #@! TA.AperFunction,ComponentPad*
%ADD13R,2.000000X2.000000*%
G04 #@! TD*
G04 #@! TA.AperFunction,ComponentPad*
%ADD14C,1.500000*%
G04 #@! TD*
G04 #@! TA.AperFunction,ComponentPad*
%ADD15R,1.700000X1.700000*%
G04 #@! TD*
G04 #@! TA.AperFunction,ComponentPad*
%ADD16O,1.700000X1.700000*%
G04 #@! TD*
G04 #@! TA.AperFunction,SMDPad,CuDef*
%ADD17RoundRect,0.243750X-0.243750X-0.456250X0.243750X-0.456250X0.243750X0.456250X-0.243750X0.456250X0*%
G04 #@! TD*
G04 #@! TA.AperFunction,SMDPad,CuDef*
%ADD18RoundRect,0.243750X0.243750X0.456250X-0.243750X0.456250X-0.243750X-0.456250X0.243750X-0.456250X0*%
G04 #@! TD*
G04 #@! TA.AperFunction,ViaPad*
%ADD19C,0.800000*%
G04 #@! TD*
G04 #@! TA.AperFunction,Conductor*
%ADD20C,0.250000*%
G04 #@! TD*
G04 #@! TA.AperFunction,Conductor*
%ADD21C,1.000000*%
G04 #@! TD*
G04 APERTURE END LIST*
D10*
X159800000Y-80070000D03*
X163800000Y-80570000D03*
X161800000Y-81070000D03*
X159800000Y-81570000D03*
X163800000Y-82070000D03*
X161800000Y-82570000D03*
X159800000Y-83070000D03*
X163800000Y-83570000D03*
X161800000Y-84070000D03*
X159800000Y-84570000D03*
X163800000Y-85070000D03*
X161800000Y-85570000D03*
X159800000Y-86070000D03*
X163800000Y-86570000D03*
X161800000Y-87070000D03*
X159800000Y-87570000D03*
X167700000Y-93470000D03*
X168200000Y-95470000D03*
X168700000Y-91470000D03*
X169200000Y-93470000D03*
X169700000Y-95470000D03*
X170200000Y-91470000D03*
X170700000Y-93470000D03*
X171200000Y-95470000D03*
X171700000Y-91470000D03*
X172200000Y-93470000D03*
X172700000Y-95470000D03*
X173200000Y-91470000D03*
X173700000Y-93470000D03*
X174200000Y-95470000D03*
X174700000Y-91470000D03*
X175200000Y-93470000D03*
X179100000Y-87570000D03*
X181100000Y-87070000D03*
X183100000Y-86570000D03*
X179100000Y-86070000D03*
X181100000Y-85570000D03*
X183100000Y-85070000D03*
X179100000Y-84570000D03*
X181100000Y-84070000D03*
X183100000Y-83570000D03*
X179100000Y-83070000D03*
X181100000Y-82570000D03*
X183100000Y-82070000D03*
X179100000Y-81570000D03*
X181100000Y-81070000D03*
X183100000Y-80570000D03*
X179100000Y-80070000D03*
X175200000Y-74170000D03*
X174700000Y-72170000D03*
X174200000Y-76170000D03*
X173700000Y-74170000D03*
X173200000Y-72170000D03*
X172700000Y-76170000D03*
X172200000Y-74170000D03*
X171700000Y-72170000D03*
X171200000Y-76170000D03*
X170700000Y-74170000D03*
X170200000Y-72170000D03*
X169700000Y-76170000D03*
X169200000Y-74170000D03*
X168700000Y-72170000D03*
X168200000Y-76170000D03*
X167700000Y-74170000D03*
D11*
X178150000Y-77120000D03*
D12*
X171450000Y-83820000D03*
D11*
X164750000Y-90520000D03*
D13*
X185420000Y-53340000D03*
X170180000Y-55880000D03*
X182880000Y-53340000D03*
X175260000Y-66040000D03*
X172720000Y-55880000D03*
X180340000Y-53340000D03*
X170180000Y-66040000D03*
X177800000Y-66040000D03*
X175260000Y-55880000D03*
X177800000Y-53340000D03*
X172720000Y-66040000D03*
X180340000Y-66040000D03*
X177800000Y-63500000D03*
X177800000Y-55880000D03*
X175260000Y-53340000D03*
X185420000Y-66040000D03*
X182880000Y-66040000D03*
X180340000Y-63500000D03*
X180340000Y-55880000D03*
X172720000Y-53340000D03*
X170180000Y-63500000D03*
X175260000Y-63500000D03*
X170180000Y-60960000D03*
X182880000Y-55880000D03*
X170180000Y-53340000D03*
X172720000Y-63500000D03*
X182880000Y-63500000D03*
X175260000Y-60960000D03*
X185420000Y-55880000D03*
X170180000Y-58420000D03*
X180340000Y-60960000D03*
X185420000Y-63500000D03*
X177800000Y-60960000D03*
X177800000Y-58420000D03*
X172720000Y-58420000D03*
X182880000Y-60960000D03*
X172720000Y-60960000D03*
X182880000Y-58420000D03*
X175260000Y-58420000D03*
X185420000Y-60960000D03*
X185420000Y-58420000D03*
X180340000Y-58420000D03*
D14*
X164465000Y-64770000D03*
X159565000Y-64770000D03*
D15*
X160020000Y-124460000D03*
D16*
X160020000Y-121920000D03*
X162560000Y-124460000D03*
X162560000Y-121920000D03*
X165100000Y-124460000D03*
X165100000Y-121920000D03*
X167640000Y-124460000D03*
X167640000Y-121920000D03*
X170180000Y-124460000D03*
X170180000Y-121920000D03*
X172720000Y-124460000D03*
X172720000Y-121920000D03*
X175260000Y-124460000D03*
X175260000Y-121920000D03*
X177800000Y-124460000D03*
X177800000Y-121920000D03*
X180340000Y-124460000D03*
X180340000Y-121920000D03*
X182880000Y-124460000D03*
X182880000Y-121920000D03*
D15*
X160020000Y-45720000D03*
D16*
X160020000Y-43180000D03*
X162560000Y-45720000D03*
X162560000Y-43180000D03*
X165100000Y-45720000D03*
X165100000Y-43180000D03*
X167640000Y-45720000D03*
X167640000Y-43180000D03*
X170180000Y-45720000D03*
X170180000Y-43180000D03*
X172720000Y-45720000D03*
X172720000Y-43180000D03*
X175260000Y-45720000D03*
X175260000Y-43180000D03*
X177800000Y-45720000D03*
X177800000Y-43180000D03*
X180340000Y-45720000D03*
X180340000Y-43180000D03*
X182880000Y-45720000D03*
X182880000Y-43180000D03*
D17*
X159717500Y-90170000D03*
X161592500Y-90170000D03*
D18*
X160957500Y-68580000D03*
X159082500Y-68580000D03*
D17*
X162892500Y-68580000D03*
X164767500Y-68580000D03*
D19*
X162052000Y-68580000D03*
D20*
X164767500Y-65072500D02*
X164465000Y-64770000D01*
X164767500Y-68580000D02*
X164767500Y-65072500D01*
X164767500Y-68580000D02*
X164719000Y-68628500D01*
X162814000Y-81084000D02*
X163200001Y-81470001D01*
X164719000Y-68628500D02*
X164719000Y-72136000D01*
X162814000Y-74041000D02*
X162814000Y-81084000D01*
X163200001Y-81470001D02*
X163800000Y-82070000D01*
X164719000Y-72136000D02*
X162814000Y-74041000D01*
X159082500Y-68580000D02*
X159082500Y-65252500D01*
X159082500Y-65252500D02*
X159565000Y-64770000D01*
X160725001Y-81350001D02*
X160725001Y-70222501D01*
X160725001Y-70222501D02*
X159638737Y-69136237D01*
X160779990Y-81549990D02*
X160779990Y-81404990D01*
X160779990Y-81404990D02*
X160725001Y-81350001D01*
X161800000Y-82570000D02*
X160779990Y-81549990D01*
X159638737Y-69136237D02*
X159082500Y-68580000D01*
X160957500Y-68580000D02*
X162052000Y-68580000D01*
X162052000Y-68580000D02*
X162892500Y-68580000D01*
D21*
X167600001Y-76769999D02*
X168200000Y-76170000D01*
X163370500Y-88392000D02*
X166399999Y-88392000D01*
X168200000Y-95470000D02*
X167351472Y-95470000D01*
X161592500Y-90170000D02*
X163370500Y-88392000D01*
D20*
X162814000Y-88948500D02*
X162814000Y-86584000D01*
D21*
X166399999Y-77970001D02*
X167600001Y-76769999D01*
X166399999Y-94518527D02*
X166399999Y-88392000D01*
X166399999Y-88392000D02*
X166399999Y-77970001D01*
D20*
X162399999Y-86169999D02*
X161800000Y-85570000D01*
X162814000Y-86584000D02*
X162399999Y-86169999D01*
X161592500Y-90170000D02*
X162814000Y-88948500D01*
D21*
X167351472Y-95470000D02*
X166399999Y-94518527D01*
X159717500Y-90170000D02*
X159717500Y-90970000D01*
X168333998Y-70612000D02*
X175066002Y-70612000D01*
X175066002Y-70612000D02*
X180430000Y-75975998D01*
D20*
X159161263Y-89613763D02*
X159717500Y-90170000D01*
D21*
X179100000Y-80070000D02*
X177486000Y-80070000D01*
X165775500Y-97028000D02*
X175260000Y-97028000D01*
X168700000Y-90621472D02*
X169405472Y-89916000D01*
X169405472Y-89916000D02*
X176784000Y-89916000D01*
X177486000Y-80070000D02*
X176784000Y-80772000D01*
X179699999Y-79470001D02*
X179100000Y-80070000D01*
X176784000Y-89916000D02*
X176784000Y-91886000D01*
X167100001Y-71845997D02*
X168333998Y-70612000D01*
D20*
X158750000Y-87120000D02*
X158750000Y-89202500D01*
X159800000Y-86070000D02*
X158750000Y-87120000D01*
D21*
X175260000Y-97028000D02*
X176784000Y-95504000D01*
X167700000Y-74170000D02*
X167100001Y-73570001D01*
D20*
X158750000Y-89202500D02*
X159161263Y-89613763D01*
D21*
X159717500Y-90970000D02*
X165775500Y-97028000D01*
X167100001Y-73570001D02*
X167100001Y-71845997D01*
X176784000Y-91886000D02*
X175200000Y-93470000D01*
X180430000Y-75975998D02*
X180430000Y-78740000D01*
X182880000Y-121920000D02*
X184912000Y-119888000D01*
X176784000Y-80772000D02*
X176784000Y-89916000D01*
X184912000Y-119888000D02*
X184912000Y-79756000D01*
X180430000Y-78740000D02*
X179699999Y-79470001D01*
X168700000Y-91470000D02*
X168700000Y-90621472D01*
X183896000Y-78740000D02*
X180430000Y-78740000D01*
X176784000Y-95504000D02*
X176784000Y-91886000D01*
X184912000Y-79756000D02*
X183896000Y-78740000D01*
D20*
X158496000Y-117856000D02*
X177800000Y-98552000D01*
X158496000Y-122936000D02*
X158496000Y-117856000D01*
X177800000Y-98552000D02*
X177800000Y-84370000D01*
X177800000Y-84370000D02*
X179100000Y-83070000D01*
X160020000Y-124460000D02*
X158496000Y-122936000D01*
X180500001Y-83169999D02*
X181100000Y-82570000D01*
X180086000Y-101854000D02*
X180086000Y-83584000D01*
X180086000Y-83584000D02*
X180500001Y-83169999D01*
X160020000Y-121920000D02*
X180086000Y-101854000D01*
X158496000Y-126492000D02*
X157480000Y-125476000D01*
X160273002Y-126492000D02*
X158496000Y-126492000D01*
X162560000Y-121920000D02*
X161384999Y-123095001D01*
X161384999Y-123095001D02*
X161384999Y-125380003D01*
X161384999Y-125380003D02*
X160273002Y-126492000D01*
X157480000Y-85390000D02*
X159800000Y-83070000D01*
X157480000Y-125476000D02*
X157480000Y-85390000D01*
M02*
