G04 #@! TF.GenerationSoftware,KiCad,Pcbnew,8.0.0-8.0.0-1~ubuntu20.04.1*
G04 #@! TF.CreationDate,2024-03-05T18:45:30+01:00*
G04 #@! TF.ProjectId,stm32l476,73746d33-326c-4343-9736-2e6b69636164,rev?*
G04 #@! TF.SameCoordinates,Original*
G04 #@! TF.FileFunction,Legend,Top*
G04 #@! TF.FilePolarity,Positive*
%FSLAX46Y46*%
G04 Gerber Fmt 4.6, Leading zero omitted, Abs format (unit mm)*
G04 Created by KiCad (PCBNEW 8.0.0-8.0.0-1~ubuntu20.04.1) date 2024-03-05 18:45:30*
%MOMM*%
%LPD*%
G01*
G04 APERTURE LIST*
%ADD10C,0.150000*%
%ADD11C,0.300000*%
%ADD12C,0.120000*%
G04 APERTURE END LIST*
D10*
X182504878Y-128185826D02*
X182469164Y-128257255D01*
X182469164Y-128257255D02*
X182469164Y-128364397D01*
X182469164Y-128364397D02*
X182504878Y-128471540D01*
X182504878Y-128471540D02*
X182576307Y-128542969D01*
X182576307Y-128542969D02*
X182647735Y-128578683D01*
X182647735Y-128578683D02*
X182790592Y-128614397D01*
X182790592Y-128614397D02*
X182897735Y-128614397D01*
X182897735Y-128614397D02*
X183040592Y-128578683D01*
X183040592Y-128578683D02*
X183112021Y-128542969D01*
X183112021Y-128542969D02*
X183183450Y-128471540D01*
X183183450Y-128471540D02*
X183219164Y-128364397D01*
X183219164Y-128364397D02*
X183219164Y-128292969D01*
X183219164Y-128292969D02*
X183183450Y-128185826D01*
X183183450Y-128185826D02*
X183147735Y-128150112D01*
X183147735Y-128150112D02*
X182897735Y-128150112D01*
X182897735Y-128150112D02*
X182897735Y-128292969D01*
X183219164Y-127828683D02*
X182469164Y-127828683D01*
X182469164Y-127828683D02*
X183219164Y-127400112D01*
X183219164Y-127400112D02*
X182469164Y-127400112D01*
X183219164Y-127042969D02*
X182469164Y-127042969D01*
X182469164Y-127042969D02*
X182469164Y-126864398D01*
X182469164Y-126864398D02*
X182504878Y-126757255D01*
X182504878Y-126757255D02*
X182576307Y-126685826D01*
X182576307Y-126685826D02*
X182647735Y-126650112D01*
X182647735Y-126650112D02*
X182790592Y-126614398D01*
X182790592Y-126614398D02*
X182897735Y-126614398D01*
X182897735Y-126614398D02*
X183040592Y-126650112D01*
X183040592Y-126650112D02*
X183112021Y-126685826D01*
X183112021Y-126685826D02*
X183183450Y-126757255D01*
X183183450Y-126757255D02*
X183219164Y-126864398D01*
X183219164Y-126864398D02*
X183219164Y-127042969D01*
X183004878Y-126328683D02*
X183004878Y-125971541D01*
X183219164Y-126400112D02*
X182469164Y-126150112D01*
X182469164Y-126150112D02*
X183219164Y-125900112D01*
X179964878Y-127542969D02*
X179929164Y-127614398D01*
X179929164Y-127614398D02*
X179929164Y-127721540D01*
X179929164Y-127721540D02*
X179964878Y-127828683D01*
X179964878Y-127828683D02*
X180036307Y-127900112D01*
X180036307Y-127900112D02*
X180107735Y-127935826D01*
X180107735Y-127935826D02*
X180250592Y-127971540D01*
X180250592Y-127971540D02*
X180357735Y-127971540D01*
X180357735Y-127971540D02*
X180500592Y-127935826D01*
X180500592Y-127935826D02*
X180572021Y-127900112D01*
X180572021Y-127900112D02*
X180643450Y-127828683D01*
X180643450Y-127828683D02*
X180679164Y-127721540D01*
X180679164Y-127721540D02*
X180679164Y-127650112D01*
X180679164Y-127650112D02*
X180643450Y-127542969D01*
X180643450Y-127542969D02*
X180607735Y-127507255D01*
X180607735Y-127507255D02*
X180357735Y-127507255D01*
X180357735Y-127507255D02*
X180357735Y-127650112D01*
X180679164Y-127185826D02*
X179929164Y-127185826D01*
X179929164Y-127185826D02*
X180679164Y-126757255D01*
X180679164Y-126757255D02*
X179929164Y-126757255D01*
X180679164Y-126400112D02*
X179929164Y-126400112D01*
X179929164Y-126400112D02*
X179929164Y-126221541D01*
X179929164Y-126221541D02*
X179964878Y-126114398D01*
X179964878Y-126114398D02*
X180036307Y-126042969D01*
X180036307Y-126042969D02*
X180107735Y-126007255D01*
X180107735Y-126007255D02*
X180250592Y-125971541D01*
X180250592Y-125971541D02*
X180357735Y-125971541D01*
X180357735Y-125971541D02*
X180500592Y-126007255D01*
X180500592Y-126007255D02*
X180572021Y-126042969D01*
X180572021Y-126042969D02*
X180643450Y-126114398D01*
X180643450Y-126114398D02*
X180679164Y-126221541D01*
X180679164Y-126221541D02*
X180679164Y-126400112D01*
X178139164Y-127828684D02*
X177389164Y-127828684D01*
X177389164Y-127828684D02*
X177389164Y-127650113D01*
X177389164Y-127650113D02*
X177424878Y-127542970D01*
X177424878Y-127542970D02*
X177496307Y-127471541D01*
X177496307Y-127471541D02*
X177567735Y-127435827D01*
X177567735Y-127435827D02*
X177710592Y-127400113D01*
X177710592Y-127400113D02*
X177817735Y-127400113D01*
X177817735Y-127400113D02*
X177960592Y-127435827D01*
X177960592Y-127435827D02*
X178032021Y-127471541D01*
X178032021Y-127471541D02*
X178103450Y-127542970D01*
X178103450Y-127542970D02*
X178139164Y-127650113D01*
X178139164Y-127650113D02*
X178139164Y-127828684D01*
X178139164Y-126685827D02*
X178139164Y-127114398D01*
X178139164Y-126900113D02*
X177389164Y-126900113D01*
X177389164Y-126900113D02*
X177496307Y-126971541D01*
X177496307Y-126971541D02*
X177567735Y-127042970D01*
X177567735Y-127042970D02*
X177603450Y-127114398D01*
X177389164Y-126007255D02*
X177389164Y-126364398D01*
X177389164Y-126364398D02*
X177746307Y-126400112D01*
X177746307Y-126400112D02*
X177710592Y-126364398D01*
X177710592Y-126364398D02*
X177674878Y-126292970D01*
X177674878Y-126292970D02*
X177674878Y-126114398D01*
X177674878Y-126114398D02*
X177710592Y-126042970D01*
X177710592Y-126042970D02*
X177746307Y-126007255D01*
X177746307Y-126007255D02*
X177817735Y-125971541D01*
X177817735Y-125971541D02*
X177996307Y-125971541D01*
X177996307Y-125971541D02*
X178067735Y-126007255D01*
X178067735Y-126007255D02*
X178103450Y-126042970D01*
X178103450Y-126042970D02*
X178139164Y-126114398D01*
X178139164Y-126114398D02*
X178139164Y-126292970D01*
X178139164Y-126292970D02*
X178103450Y-126364398D01*
X178103450Y-126364398D02*
X178067735Y-126400112D01*
X175599164Y-127828684D02*
X174849164Y-127828684D01*
X174849164Y-127828684D02*
X174849164Y-127650113D01*
X174849164Y-127650113D02*
X174884878Y-127542970D01*
X174884878Y-127542970D02*
X174956307Y-127471541D01*
X174956307Y-127471541D02*
X175027735Y-127435827D01*
X175027735Y-127435827D02*
X175170592Y-127400113D01*
X175170592Y-127400113D02*
X175277735Y-127400113D01*
X175277735Y-127400113D02*
X175420592Y-127435827D01*
X175420592Y-127435827D02*
X175492021Y-127471541D01*
X175492021Y-127471541D02*
X175563450Y-127542970D01*
X175563450Y-127542970D02*
X175599164Y-127650113D01*
X175599164Y-127650113D02*
X175599164Y-127828684D01*
X175599164Y-126685827D02*
X175599164Y-127114398D01*
X175599164Y-126900113D02*
X174849164Y-126900113D01*
X174849164Y-126900113D02*
X174956307Y-126971541D01*
X174956307Y-126971541D02*
X175027735Y-127042970D01*
X175027735Y-127042970D02*
X175063450Y-127114398D01*
X174849164Y-126435827D02*
X174849164Y-125971541D01*
X174849164Y-125971541D02*
X175134878Y-126221541D01*
X175134878Y-126221541D02*
X175134878Y-126114398D01*
X175134878Y-126114398D02*
X175170592Y-126042970D01*
X175170592Y-126042970D02*
X175206307Y-126007255D01*
X175206307Y-126007255D02*
X175277735Y-125971541D01*
X175277735Y-125971541D02*
X175456307Y-125971541D01*
X175456307Y-125971541D02*
X175527735Y-126007255D01*
X175527735Y-126007255D02*
X175563450Y-126042970D01*
X175563450Y-126042970D02*
X175599164Y-126114398D01*
X175599164Y-126114398D02*
X175599164Y-126328684D01*
X175599164Y-126328684D02*
X175563450Y-126400112D01*
X175563450Y-126400112D02*
X175527735Y-126435827D01*
X173059164Y-127828684D02*
X172309164Y-127828684D01*
X172309164Y-127828684D02*
X172309164Y-127650113D01*
X172309164Y-127650113D02*
X172344878Y-127542970D01*
X172344878Y-127542970D02*
X172416307Y-127471541D01*
X172416307Y-127471541D02*
X172487735Y-127435827D01*
X172487735Y-127435827D02*
X172630592Y-127400113D01*
X172630592Y-127400113D02*
X172737735Y-127400113D01*
X172737735Y-127400113D02*
X172880592Y-127435827D01*
X172880592Y-127435827D02*
X172952021Y-127471541D01*
X172952021Y-127471541D02*
X173023450Y-127542970D01*
X173023450Y-127542970D02*
X173059164Y-127650113D01*
X173059164Y-127650113D02*
X173059164Y-127828684D01*
X173059164Y-126685827D02*
X173059164Y-127114398D01*
X173059164Y-126900113D02*
X172309164Y-126900113D01*
X172309164Y-126900113D02*
X172416307Y-126971541D01*
X172416307Y-126971541D02*
X172487735Y-127042970D01*
X172487735Y-127042970D02*
X172523450Y-127114398D01*
X173059164Y-125971541D02*
X173059164Y-126400112D01*
X173059164Y-126185827D02*
X172309164Y-126185827D01*
X172309164Y-126185827D02*
X172416307Y-126257255D01*
X172416307Y-126257255D02*
X172487735Y-126328684D01*
X172487735Y-126328684D02*
X172523450Y-126400112D01*
X170519164Y-127114398D02*
X169769164Y-127114398D01*
X169769164Y-127114398D02*
X169769164Y-126935827D01*
X169769164Y-126935827D02*
X169804878Y-126828684D01*
X169804878Y-126828684D02*
X169876307Y-126757255D01*
X169876307Y-126757255D02*
X169947735Y-126721541D01*
X169947735Y-126721541D02*
X170090592Y-126685827D01*
X170090592Y-126685827D02*
X170197735Y-126685827D01*
X170197735Y-126685827D02*
X170340592Y-126721541D01*
X170340592Y-126721541D02*
X170412021Y-126757255D01*
X170412021Y-126757255D02*
X170483450Y-126828684D01*
X170483450Y-126828684D02*
X170519164Y-126935827D01*
X170519164Y-126935827D02*
X170519164Y-127114398D01*
X170519164Y-126328684D02*
X170519164Y-126185827D01*
X170519164Y-126185827D02*
X170483450Y-126114398D01*
X170483450Y-126114398D02*
X170447735Y-126078684D01*
X170447735Y-126078684D02*
X170340592Y-126007255D01*
X170340592Y-126007255D02*
X170197735Y-125971541D01*
X170197735Y-125971541D02*
X169912021Y-125971541D01*
X169912021Y-125971541D02*
X169840592Y-126007255D01*
X169840592Y-126007255D02*
X169804878Y-126042970D01*
X169804878Y-126042970D02*
X169769164Y-126114398D01*
X169769164Y-126114398D02*
X169769164Y-126257255D01*
X169769164Y-126257255D02*
X169804878Y-126328684D01*
X169804878Y-126328684D02*
X169840592Y-126364398D01*
X169840592Y-126364398D02*
X169912021Y-126400112D01*
X169912021Y-126400112D02*
X170090592Y-126400112D01*
X170090592Y-126400112D02*
X170162021Y-126364398D01*
X170162021Y-126364398D02*
X170197735Y-126328684D01*
X170197735Y-126328684D02*
X170233450Y-126257255D01*
X170233450Y-126257255D02*
X170233450Y-126114398D01*
X170233450Y-126114398D02*
X170197735Y-126042970D01*
X170197735Y-126042970D02*
X170162021Y-126007255D01*
X170162021Y-126007255D02*
X170090592Y-125971541D01*
X167979164Y-127114398D02*
X167229164Y-127114398D01*
X167229164Y-127114398D02*
X167229164Y-126935827D01*
X167229164Y-126935827D02*
X167264878Y-126828684D01*
X167264878Y-126828684D02*
X167336307Y-126757255D01*
X167336307Y-126757255D02*
X167407735Y-126721541D01*
X167407735Y-126721541D02*
X167550592Y-126685827D01*
X167550592Y-126685827D02*
X167657735Y-126685827D01*
X167657735Y-126685827D02*
X167800592Y-126721541D01*
X167800592Y-126721541D02*
X167872021Y-126757255D01*
X167872021Y-126757255D02*
X167943450Y-126828684D01*
X167943450Y-126828684D02*
X167979164Y-126935827D01*
X167979164Y-126935827D02*
X167979164Y-127114398D01*
X167229164Y-126435827D02*
X167229164Y-125935827D01*
X167229164Y-125935827D02*
X167979164Y-126257255D01*
X165439164Y-127114398D02*
X164689164Y-127114398D01*
X164689164Y-127114398D02*
X164689164Y-126935827D01*
X164689164Y-126935827D02*
X164724878Y-126828684D01*
X164724878Y-126828684D02*
X164796307Y-126757255D01*
X164796307Y-126757255D02*
X164867735Y-126721541D01*
X164867735Y-126721541D02*
X165010592Y-126685827D01*
X165010592Y-126685827D02*
X165117735Y-126685827D01*
X165117735Y-126685827D02*
X165260592Y-126721541D01*
X165260592Y-126721541D02*
X165332021Y-126757255D01*
X165332021Y-126757255D02*
X165403450Y-126828684D01*
X165403450Y-126828684D02*
X165439164Y-126935827D01*
X165439164Y-126935827D02*
X165439164Y-127114398D01*
X164689164Y-126007255D02*
X164689164Y-126364398D01*
X164689164Y-126364398D02*
X165046307Y-126400112D01*
X165046307Y-126400112D02*
X165010592Y-126364398D01*
X165010592Y-126364398D02*
X164974878Y-126292970D01*
X164974878Y-126292970D02*
X164974878Y-126114398D01*
X164974878Y-126114398D02*
X165010592Y-126042970D01*
X165010592Y-126042970D02*
X165046307Y-126007255D01*
X165046307Y-126007255D02*
X165117735Y-125971541D01*
X165117735Y-125971541D02*
X165296307Y-125971541D01*
X165296307Y-125971541D02*
X165367735Y-126007255D01*
X165367735Y-126007255D02*
X165403450Y-126042970D01*
X165403450Y-126042970D02*
X165439164Y-126114398D01*
X165439164Y-126114398D02*
X165439164Y-126292970D01*
X165439164Y-126292970D02*
X165403450Y-126364398D01*
X165403450Y-126364398D02*
X165367735Y-126400112D01*
X162899164Y-127114398D02*
X162149164Y-127114398D01*
X162149164Y-127114398D02*
X162149164Y-126935827D01*
X162149164Y-126935827D02*
X162184878Y-126828684D01*
X162184878Y-126828684D02*
X162256307Y-126757255D01*
X162256307Y-126757255D02*
X162327735Y-126721541D01*
X162327735Y-126721541D02*
X162470592Y-126685827D01*
X162470592Y-126685827D02*
X162577735Y-126685827D01*
X162577735Y-126685827D02*
X162720592Y-126721541D01*
X162720592Y-126721541D02*
X162792021Y-126757255D01*
X162792021Y-126757255D02*
X162863450Y-126828684D01*
X162863450Y-126828684D02*
X162899164Y-126935827D01*
X162899164Y-126935827D02*
X162899164Y-127114398D01*
X162149164Y-126435827D02*
X162149164Y-125971541D01*
X162149164Y-125971541D02*
X162434878Y-126221541D01*
X162434878Y-126221541D02*
X162434878Y-126114398D01*
X162434878Y-126114398D02*
X162470592Y-126042970D01*
X162470592Y-126042970D02*
X162506307Y-126007255D01*
X162506307Y-126007255D02*
X162577735Y-125971541D01*
X162577735Y-125971541D02*
X162756307Y-125971541D01*
X162756307Y-125971541D02*
X162827735Y-126007255D01*
X162827735Y-126007255D02*
X162863450Y-126042970D01*
X162863450Y-126042970D02*
X162899164Y-126114398D01*
X162899164Y-126114398D02*
X162899164Y-126328684D01*
X162899164Y-126328684D02*
X162863450Y-126400112D01*
X162863450Y-126400112D02*
X162827735Y-126435827D01*
X160359164Y-127114398D02*
X159609164Y-127114398D01*
X159609164Y-127114398D02*
X159609164Y-126935827D01*
X159609164Y-126935827D02*
X159644878Y-126828684D01*
X159644878Y-126828684D02*
X159716307Y-126757255D01*
X159716307Y-126757255D02*
X159787735Y-126721541D01*
X159787735Y-126721541D02*
X159930592Y-126685827D01*
X159930592Y-126685827D02*
X160037735Y-126685827D01*
X160037735Y-126685827D02*
X160180592Y-126721541D01*
X160180592Y-126721541D02*
X160252021Y-126757255D01*
X160252021Y-126757255D02*
X160323450Y-126828684D01*
X160323450Y-126828684D02*
X160359164Y-126935827D01*
X160359164Y-126935827D02*
X160359164Y-127114398D01*
X160359164Y-125971541D02*
X160359164Y-126400112D01*
X160359164Y-126185827D02*
X159609164Y-126185827D01*
X159609164Y-126185827D02*
X159716307Y-126257255D01*
X159716307Y-126257255D02*
X159787735Y-126328684D01*
X159787735Y-126328684D02*
X159823450Y-126400112D01*
X160359164Y-120372744D02*
X159609164Y-120372744D01*
X159609164Y-120372744D02*
X159609164Y-120194173D01*
X159609164Y-120194173D02*
X159644878Y-120087030D01*
X159644878Y-120087030D02*
X159716307Y-120015601D01*
X159716307Y-120015601D02*
X159787735Y-119979887D01*
X159787735Y-119979887D02*
X159930592Y-119944173D01*
X159930592Y-119944173D02*
X160037735Y-119944173D01*
X160037735Y-119944173D02*
X160180592Y-119979887D01*
X160180592Y-119979887D02*
X160252021Y-120015601D01*
X160252021Y-120015601D02*
X160323450Y-120087030D01*
X160323450Y-120087030D02*
X160359164Y-120194173D01*
X160359164Y-120194173D02*
X160359164Y-120372744D01*
X159609164Y-119479887D02*
X159609164Y-119408458D01*
X159609164Y-119408458D02*
X159644878Y-119337030D01*
X159644878Y-119337030D02*
X159680592Y-119301316D01*
X159680592Y-119301316D02*
X159752021Y-119265601D01*
X159752021Y-119265601D02*
X159894878Y-119229887D01*
X159894878Y-119229887D02*
X160073450Y-119229887D01*
X160073450Y-119229887D02*
X160216307Y-119265601D01*
X160216307Y-119265601D02*
X160287735Y-119301316D01*
X160287735Y-119301316D02*
X160323450Y-119337030D01*
X160323450Y-119337030D02*
X160359164Y-119408458D01*
X160359164Y-119408458D02*
X160359164Y-119479887D01*
X160359164Y-119479887D02*
X160323450Y-119551316D01*
X160323450Y-119551316D02*
X160287735Y-119587030D01*
X160287735Y-119587030D02*
X160216307Y-119622744D01*
X160216307Y-119622744D02*
X160073450Y-119658458D01*
X160073450Y-119658458D02*
X159894878Y-119658458D01*
X159894878Y-119658458D02*
X159752021Y-119622744D01*
X159752021Y-119622744D02*
X159680592Y-119587030D01*
X159680592Y-119587030D02*
X159644878Y-119551316D01*
X159644878Y-119551316D02*
X159609164Y-119479887D01*
X162899164Y-120372744D02*
X162149164Y-120372744D01*
X162149164Y-120372744D02*
X162149164Y-120194173D01*
X162149164Y-120194173D02*
X162184878Y-120087030D01*
X162184878Y-120087030D02*
X162256307Y-120015601D01*
X162256307Y-120015601D02*
X162327735Y-119979887D01*
X162327735Y-119979887D02*
X162470592Y-119944173D01*
X162470592Y-119944173D02*
X162577735Y-119944173D01*
X162577735Y-119944173D02*
X162720592Y-119979887D01*
X162720592Y-119979887D02*
X162792021Y-120015601D01*
X162792021Y-120015601D02*
X162863450Y-120087030D01*
X162863450Y-120087030D02*
X162899164Y-120194173D01*
X162899164Y-120194173D02*
X162899164Y-120372744D01*
X162220592Y-119658458D02*
X162184878Y-119622744D01*
X162184878Y-119622744D02*
X162149164Y-119551316D01*
X162149164Y-119551316D02*
X162149164Y-119372744D01*
X162149164Y-119372744D02*
X162184878Y-119301316D01*
X162184878Y-119301316D02*
X162220592Y-119265601D01*
X162220592Y-119265601D02*
X162292021Y-119229887D01*
X162292021Y-119229887D02*
X162363450Y-119229887D01*
X162363450Y-119229887D02*
X162470592Y-119265601D01*
X162470592Y-119265601D02*
X162899164Y-119694173D01*
X162899164Y-119694173D02*
X162899164Y-119229887D01*
X165439164Y-120372744D02*
X164689164Y-120372744D01*
X164689164Y-120372744D02*
X164689164Y-120194173D01*
X164689164Y-120194173D02*
X164724878Y-120087030D01*
X164724878Y-120087030D02*
X164796307Y-120015601D01*
X164796307Y-120015601D02*
X164867735Y-119979887D01*
X164867735Y-119979887D02*
X165010592Y-119944173D01*
X165010592Y-119944173D02*
X165117735Y-119944173D01*
X165117735Y-119944173D02*
X165260592Y-119979887D01*
X165260592Y-119979887D02*
X165332021Y-120015601D01*
X165332021Y-120015601D02*
X165403450Y-120087030D01*
X165403450Y-120087030D02*
X165439164Y-120194173D01*
X165439164Y-120194173D02*
X165439164Y-120372744D01*
X164939164Y-119301316D02*
X165439164Y-119301316D01*
X164653450Y-119479887D02*
X165189164Y-119658458D01*
X165189164Y-119658458D02*
X165189164Y-119194173D01*
X167979164Y-120372744D02*
X167229164Y-120372744D01*
X167229164Y-120372744D02*
X167229164Y-120194173D01*
X167229164Y-120194173D02*
X167264878Y-120087030D01*
X167264878Y-120087030D02*
X167336307Y-120015601D01*
X167336307Y-120015601D02*
X167407735Y-119979887D01*
X167407735Y-119979887D02*
X167550592Y-119944173D01*
X167550592Y-119944173D02*
X167657735Y-119944173D01*
X167657735Y-119944173D02*
X167800592Y-119979887D01*
X167800592Y-119979887D02*
X167872021Y-120015601D01*
X167872021Y-120015601D02*
X167943450Y-120087030D01*
X167943450Y-120087030D02*
X167979164Y-120194173D01*
X167979164Y-120194173D02*
X167979164Y-120372744D01*
X167229164Y-119301316D02*
X167229164Y-119444173D01*
X167229164Y-119444173D02*
X167264878Y-119515601D01*
X167264878Y-119515601D02*
X167300592Y-119551316D01*
X167300592Y-119551316D02*
X167407735Y-119622744D01*
X167407735Y-119622744D02*
X167550592Y-119658458D01*
X167550592Y-119658458D02*
X167836307Y-119658458D01*
X167836307Y-119658458D02*
X167907735Y-119622744D01*
X167907735Y-119622744D02*
X167943450Y-119587030D01*
X167943450Y-119587030D02*
X167979164Y-119515601D01*
X167979164Y-119515601D02*
X167979164Y-119372744D01*
X167979164Y-119372744D02*
X167943450Y-119301316D01*
X167943450Y-119301316D02*
X167907735Y-119265601D01*
X167907735Y-119265601D02*
X167836307Y-119229887D01*
X167836307Y-119229887D02*
X167657735Y-119229887D01*
X167657735Y-119229887D02*
X167586307Y-119265601D01*
X167586307Y-119265601D02*
X167550592Y-119301316D01*
X167550592Y-119301316D02*
X167514878Y-119372744D01*
X167514878Y-119372744D02*
X167514878Y-119515601D01*
X167514878Y-119515601D02*
X167550592Y-119587030D01*
X167550592Y-119587030D02*
X167586307Y-119622744D01*
X167586307Y-119622744D02*
X167657735Y-119658458D01*
X170519164Y-120372744D02*
X169769164Y-120372744D01*
X169769164Y-120372744D02*
X169769164Y-120194173D01*
X169769164Y-120194173D02*
X169804878Y-120087030D01*
X169804878Y-120087030D02*
X169876307Y-120015601D01*
X169876307Y-120015601D02*
X169947735Y-119979887D01*
X169947735Y-119979887D02*
X170090592Y-119944173D01*
X170090592Y-119944173D02*
X170197735Y-119944173D01*
X170197735Y-119944173D02*
X170340592Y-119979887D01*
X170340592Y-119979887D02*
X170412021Y-120015601D01*
X170412021Y-120015601D02*
X170483450Y-120087030D01*
X170483450Y-120087030D02*
X170519164Y-120194173D01*
X170519164Y-120194173D02*
X170519164Y-120372744D01*
X170090592Y-119515601D02*
X170054878Y-119587030D01*
X170054878Y-119587030D02*
X170019164Y-119622744D01*
X170019164Y-119622744D02*
X169947735Y-119658458D01*
X169947735Y-119658458D02*
X169912021Y-119658458D01*
X169912021Y-119658458D02*
X169840592Y-119622744D01*
X169840592Y-119622744D02*
X169804878Y-119587030D01*
X169804878Y-119587030D02*
X169769164Y-119515601D01*
X169769164Y-119515601D02*
X169769164Y-119372744D01*
X169769164Y-119372744D02*
X169804878Y-119301316D01*
X169804878Y-119301316D02*
X169840592Y-119265601D01*
X169840592Y-119265601D02*
X169912021Y-119229887D01*
X169912021Y-119229887D02*
X169947735Y-119229887D01*
X169947735Y-119229887D02*
X170019164Y-119265601D01*
X170019164Y-119265601D02*
X170054878Y-119301316D01*
X170054878Y-119301316D02*
X170090592Y-119372744D01*
X170090592Y-119372744D02*
X170090592Y-119515601D01*
X170090592Y-119515601D02*
X170126307Y-119587030D01*
X170126307Y-119587030D02*
X170162021Y-119622744D01*
X170162021Y-119622744D02*
X170233450Y-119658458D01*
X170233450Y-119658458D02*
X170376307Y-119658458D01*
X170376307Y-119658458D02*
X170447735Y-119622744D01*
X170447735Y-119622744D02*
X170483450Y-119587030D01*
X170483450Y-119587030D02*
X170519164Y-119515601D01*
X170519164Y-119515601D02*
X170519164Y-119372744D01*
X170519164Y-119372744D02*
X170483450Y-119301316D01*
X170483450Y-119301316D02*
X170447735Y-119265601D01*
X170447735Y-119265601D02*
X170376307Y-119229887D01*
X170376307Y-119229887D02*
X170233450Y-119229887D01*
X170233450Y-119229887D02*
X170162021Y-119265601D01*
X170162021Y-119265601D02*
X170126307Y-119301316D01*
X170126307Y-119301316D02*
X170090592Y-119372744D01*
X173059164Y-120372744D02*
X172309164Y-120372744D01*
X172309164Y-120372744D02*
X172309164Y-120194173D01*
X172309164Y-120194173D02*
X172344878Y-120087030D01*
X172344878Y-120087030D02*
X172416307Y-120015601D01*
X172416307Y-120015601D02*
X172487735Y-119979887D01*
X172487735Y-119979887D02*
X172630592Y-119944173D01*
X172630592Y-119944173D02*
X172737735Y-119944173D01*
X172737735Y-119944173D02*
X172880592Y-119979887D01*
X172880592Y-119979887D02*
X172952021Y-120015601D01*
X172952021Y-120015601D02*
X173023450Y-120087030D01*
X173023450Y-120087030D02*
X173059164Y-120194173D01*
X173059164Y-120194173D02*
X173059164Y-120372744D01*
X173059164Y-119229887D02*
X173059164Y-119658458D01*
X173059164Y-119444173D02*
X172309164Y-119444173D01*
X172309164Y-119444173D02*
X172416307Y-119515601D01*
X172416307Y-119515601D02*
X172487735Y-119587030D01*
X172487735Y-119587030D02*
X172523450Y-119658458D01*
X172309164Y-118765601D02*
X172309164Y-118694172D01*
X172309164Y-118694172D02*
X172344878Y-118622744D01*
X172344878Y-118622744D02*
X172380592Y-118587030D01*
X172380592Y-118587030D02*
X172452021Y-118551315D01*
X172452021Y-118551315D02*
X172594878Y-118515601D01*
X172594878Y-118515601D02*
X172773450Y-118515601D01*
X172773450Y-118515601D02*
X172916307Y-118551315D01*
X172916307Y-118551315D02*
X172987735Y-118587030D01*
X172987735Y-118587030D02*
X173023450Y-118622744D01*
X173023450Y-118622744D02*
X173059164Y-118694172D01*
X173059164Y-118694172D02*
X173059164Y-118765601D01*
X173059164Y-118765601D02*
X173023450Y-118837030D01*
X173023450Y-118837030D02*
X172987735Y-118872744D01*
X172987735Y-118872744D02*
X172916307Y-118908458D01*
X172916307Y-118908458D02*
X172773450Y-118944172D01*
X172773450Y-118944172D02*
X172594878Y-118944172D01*
X172594878Y-118944172D02*
X172452021Y-118908458D01*
X172452021Y-118908458D02*
X172380592Y-118872744D01*
X172380592Y-118872744D02*
X172344878Y-118837030D01*
X172344878Y-118837030D02*
X172309164Y-118765601D01*
X175599164Y-120372744D02*
X174849164Y-120372744D01*
X174849164Y-120372744D02*
X174849164Y-120194173D01*
X174849164Y-120194173D02*
X174884878Y-120087030D01*
X174884878Y-120087030D02*
X174956307Y-120015601D01*
X174956307Y-120015601D02*
X175027735Y-119979887D01*
X175027735Y-119979887D02*
X175170592Y-119944173D01*
X175170592Y-119944173D02*
X175277735Y-119944173D01*
X175277735Y-119944173D02*
X175420592Y-119979887D01*
X175420592Y-119979887D02*
X175492021Y-120015601D01*
X175492021Y-120015601D02*
X175563450Y-120087030D01*
X175563450Y-120087030D02*
X175599164Y-120194173D01*
X175599164Y-120194173D02*
X175599164Y-120372744D01*
X175599164Y-119229887D02*
X175599164Y-119658458D01*
X175599164Y-119444173D02*
X174849164Y-119444173D01*
X174849164Y-119444173D02*
X174956307Y-119515601D01*
X174956307Y-119515601D02*
X175027735Y-119587030D01*
X175027735Y-119587030D02*
X175063450Y-119658458D01*
X174920592Y-118944172D02*
X174884878Y-118908458D01*
X174884878Y-118908458D02*
X174849164Y-118837030D01*
X174849164Y-118837030D02*
X174849164Y-118658458D01*
X174849164Y-118658458D02*
X174884878Y-118587030D01*
X174884878Y-118587030D02*
X174920592Y-118551315D01*
X174920592Y-118551315D02*
X174992021Y-118515601D01*
X174992021Y-118515601D02*
X175063450Y-118515601D01*
X175063450Y-118515601D02*
X175170592Y-118551315D01*
X175170592Y-118551315D02*
X175599164Y-118979887D01*
X175599164Y-118979887D02*
X175599164Y-118515601D01*
X178139164Y-120372744D02*
X177389164Y-120372744D01*
X177389164Y-120372744D02*
X177389164Y-120194173D01*
X177389164Y-120194173D02*
X177424878Y-120087030D01*
X177424878Y-120087030D02*
X177496307Y-120015601D01*
X177496307Y-120015601D02*
X177567735Y-119979887D01*
X177567735Y-119979887D02*
X177710592Y-119944173D01*
X177710592Y-119944173D02*
X177817735Y-119944173D01*
X177817735Y-119944173D02*
X177960592Y-119979887D01*
X177960592Y-119979887D02*
X178032021Y-120015601D01*
X178032021Y-120015601D02*
X178103450Y-120087030D01*
X178103450Y-120087030D02*
X178139164Y-120194173D01*
X178139164Y-120194173D02*
X178139164Y-120372744D01*
X178139164Y-119229887D02*
X178139164Y-119658458D01*
X178139164Y-119444173D02*
X177389164Y-119444173D01*
X177389164Y-119444173D02*
X177496307Y-119515601D01*
X177496307Y-119515601D02*
X177567735Y-119587030D01*
X177567735Y-119587030D02*
X177603450Y-119658458D01*
X177639164Y-118587030D02*
X178139164Y-118587030D01*
X177353450Y-118765601D02*
X177889164Y-118944172D01*
X177889164Y-118944172D02*
X177889164Y-118479887D01*
X179929164Y-120479887D02*
X180679164Y-120229887D01*
X180679164Y-120229887D02*
X179929164Y-119979887D01*
X180679164Y-119729887D02*
X179929164Y-119729887D01*
X179929164Y-119729887D02*
X179929164Y-119551316D01*
X179929164Y-119551316D02*
X179964878Y-119444173D01*
X179964878Y-119444173D02*
X180036307Y-119372744D01*
X180036307Y-119372744D02*
X180107735Y-119337030D01*
X180107735Y-119337030D02*
X180250592Y-119301316D01*
X180250592Y-119301316D02*
X180357735Y-119301316D01*
X180357735Y-119301316D02*
X180500592Y-119337030D01*
X180500592Y-119337030D02*
X180572021Y-119372744D01*
X180572021Y-119372744D02*
X180643450Y-119444173D01*
X180643450Y-119444173D02*
X180679164Y-119551316D01*
X180679164Y-119551316D02*
X180679164Y-119729887D01*
X180679164Y-118979887D02*
X179929164Y-118979887D01*
X179929164Y-118979887D02*
X179929164Y-118801316D01*
X179929164Y-118801316D02*
X179964878Y-118694173D01*
X179964878Y-118694173D02*
X180036307Y-118622744D01*
X180036307Y-118622744D02*
X180107735Y-118587030D01*
X180107735Y-118587030D02*
X180250592Y-118551316D01*
X180250592Y-118551316D02*
X180357735Y-118551316D01*
X180357735Y-118551316D02*
X180500592Y-118587030D01*
X180500592Y-118587030D02*
X180572021Y-118622744D01*
X180572021Y-118622744D02*
X180643450Y-118694173D01*
X180643450Y-118694173D02*
X180679164Y-118801316D01*
X180679164Y-118801316D02*
X180679164Y-118979887D01*
X182469164Y-120479887D02*
X183219164Y-120229887D01*
X183219164Y-120229887D02*
X182469164Y-119979887D01*
X183219164Y-119729887D02*
X182469164Y-119729887D01*
X182469164Y-119729887D02*
X182469164Y-119551316D01*
X182469164Y-119551316D02*
X182504878Y-119444173D01*
X182504878Y-119444173D02*
X182576307Y-119372744D01*
X182576307Y-119372744D02*
X182647735Y-119337030D01*
X182647735Y-119337030D02*
X182790592Y-119301316D01*
X182790592Y-119301316D02*
X182897735Y-119301316D01*
X182897735Y-119301316D02*
X183040592Y-119337030D01*
X183040592Y-119337030D02*
X183112021Y-119372744D01*
X183112021Y-119372744D02*
X183183450Y-119444173D01*
X183183450Y-119444173D02*
X183219164Y-119551316D01*
X183219164Y-119551316D02*
X183219164Y-119729887D01*
X183219164Y-118979887D02*
X182469164Y-118979887D01*
X182469164Y-118979887D02*
X182469164Y-118801316D01*
X182469164Y-118801316D02*
X182504878Y-118694173D01*
X182504878Y-118694173D02*
X182576307Y-118622744D01*
X182576307Y-118622744D02*
X182647735Y-118587030D01*
X182647735Y-118587030D02*
X182790592Y-118551316D01*
X182790592Y-118551316D02*
X182897735Y-118551316D01*
X182897735Y-118551316D02*
X183040592Y-118587030D01*
X183040592Y-118587030D02*
X183112021Y-118622744D01*
X183112021Y-118622744D02*
X183183450Y-118694173D01*
X183183450Y-118694173D02*
X183219164Y-118801316D01*
X183219164Y-118801316D02*
X183219164Y-118979887D01*
X183004878Y-118265601D02*
X183004878Y-117908459D01*
X183219164Y-118337030D02*
X182469164Y-118087030D01*
X182469164Y-118087030D02*
X183219164Y-117837030D01*
D11*
X158034510Y-103861038D02*
X158034510Y-102361038D01*
X158034510Y-102361038D02*
X158391653Y-102361038D01*
X158391653Y-102361038D02*
X158605939Y-102432467D01*
X158605939Y-102432467D02*
X158748796Y-102575324D01*
X158748796Y-102575324D02*
X158820225Y-102718181D01*
X158820225Y-102718181D02*
X158891653Y-103003895D01*
X158891653Y-103003895D02*
X158891653Y-103218181D01*
X158891653Y-103218181D02*
X158820225Y-103503895D01*
X158820225Y-103503895D02*
X158748796Y-103646752D01*
X158748796Y-103646752D02*
X158605939Y-103789610D01*
X158605939Y-103789610D02*
X158391653Y-103861038D01*
X158391653Y-103861038D02*
X158034510Y-103861038D01*
X159820225Y-102361038D02*
X159963082Y-102361038D01*
X159963082Y-102361038D02*
X160105939Y-102432467D01*
X160105939Y-102432467D02*
X160177368Y-102503895D01*
X160177368Y-102503895D02*
X160248796Y-102646752D01*
X160248796Y-102646752D02*
X160320225Y-102932467D01*
X160320225Y-102932467D02*
X160320225Y-103289610D01*
X160320225Y-103289610D02*
X160248796Y-103575324D01*
X160248796Y-103575324D02*
X160177368Y-103718181D01*
X160177368Y-103718181D02*
X160105939Y-103789610D01*
X160105939Y-103789610D02*
X159963082Y-103861038D01*
X159963082Y-103861038D02*
X159820225Y-103861038D01*
X159820225Y-103861038D02*
X159677368Y-103789610D01*
X159677368Y-103789610D02*
X159605939Y-103718181D01*
X159605939Y-103718181D02*
X159534510Y-103575324D01*
X159534510Y-103575324D02*
X159463082Y-103289610D01*
X159463082Y-103289610D02*
X159463082Y-102932467D01*
X159463082Y-102932467D02*
X159534510Y-102646752D01*
X159534510Y-102646752D02*
X159605939Y-102503895D01*
X159605939Y-102503895D02*
X159677368Y-102432467D01*
X159677368Y-102432467D02*
X159820225Y-102361038D01*
X160963081Y-103718181D02*
X161034510Y-103789610D01*
X161034510Y-103789610D02*
X160963081Y-103861038D01*
X160963081Y-103861038D02*
X160891653Y-103789610D01*
X160891653Y-103789610D02*
X160963081Y-103718181D01*
X160963081Y-103718181D02*
X160963081Y-103861038D01*
X160963081Y-102932467D02*
X161034510Y-103003895D01*
X161034510Y-103003895D02*
X160963081Y-103075324D01*
X160963081Y-103075324D02*
X160891653Y-103003895D01*
X160891653Y-103003895D02*
X160963081Y-102932467D01*
X160963081Y-102932467D02*
X160963081Y-103075324D01*
X162820224Y-103861038D02*
X162820224Y-102361038D01*
X162820224Y-102361038D02*
X163320224Y-103432467D01*
X163320224Y-103432467D02*
X163820224Y-102361038D01*
X163820224Y-102361038D02*
X163820224Y-103861038D01*
X165391653Y-103718181D02*
X165320225Y-103789610D01*
X165320225Y-103789610D02*
X165105939Y-103861038D01*
X165105939Y-103861038D02*
X164963082Y-103861038D01*
X164963082Y-103861038D02*
X164748796Y-103789610D01*
X164748796Y-103789610D02*
X164605939Y-103646752D01*
X164605939Y-103646752D02*
X164534510Y-103503895D01*
X164534510Y-103503895D02*
X164463082Y-103218181D01*
X164463082Y-103218181D02*
X164463082Y-103003895D01*
X164463082Y-103003895D02*
X164534510Y-102718181D01*
X164534510Y-102718181D02*
X164605939Y-102575324D01*
X164605939Y-102575324D02*
X164748796Y-102432467D01*
X164748796Y-102432467D02*
X164963082Y-102361038D01*
X164963082Y-102361038D02*
X165105939Y-102361038D01*
X165105939Y-102361038D02*
X165320225Y-102432467D01*
X165320225Y-102432467D02*
X165391653Y-102503895D01*
X166034510Y-102361038D02*
X166034510Y-103575324D01*
X166034510Y-103575324D02*
X166105939Y-103718181D01*
X166105939Y-103718181D02*
X166177368Y-103789610D01*
X166177368Y-103789610D02*
X166320225Y-103861038D01*
X166320225Y-103861038D02*
X166605939Y-103861038D01*
X166605939Y-103861038D02*
X166748796Y-103789610D01*
X166748796Y-103789610D02*
X166820225Y-103718181D01*
X166820225Y-103718181D02*
X166891653Y-103575324D01*
X166891653Y-103575324D02*
X166891653Y-102361038D01*
X169605939Y-103861038D02*
X169105939Y-103146752D01*
X168748796Y-103861038D02*
X168748796Y-102361038D01*
X168748796Y-102361038D02*
X169320225Y-102361038D01*
X169320225Y-102361038D02*
X169463082Y-102432467D01*
X169463082Y-102432467D02*
X169534511Y-102503895D01*
X169534511Y-102503895D02*
X169605939Y-102646752D01*
X169605939Y-102646752D02*
X169605939Y-102861038D01*
X169605939Y-102861038D02*
X169534511Y-103003895D01*
X169534511Y-103003895D02*
X169463082Y-103075324D01*
X169463082Y-103075324D02*
X169320225Y-103146752D01*
X169320225Y-103146752D02*
X168748796Y-103146752D01*
X170105939Y-102361038D02*
X171105939Y-103861038D01*
X171105939Y-102361038D02*
X170105939Y-103861038D01*
X158034510Y-106275954D02*
X158034510Y-104775954D01*
X158034510Y-104775954D02*
X158391653Y-104775954D01*
X158391653Y-104775954D02*
X158605939Y-104847383D01*
X158605939Y-104847383D02*
X158748796Y-104990240D01*
X158748796Y-104990240D02*
X158820225Y-105133097D01*
X158820225Y-105133097D02*
X158891653Y-105418811D01*
X158891653Y-105418811D02*
X158891653Y-105633097D01*
X158891653Y-105633097D02*
X158820225Y-105918811D01*
X158820225Y-105918811D02*
X158748796Y-106061668D01*
X158748796Y-106061668D02*
X158605939Y-106204526D01*
X158605939Y-106204526D02*
X158391653Y-106275954D01*
X158391653Y-106275954D02*
X158034510Y-106275954D01*
X160320225Y-106275954D02*
X159463082Y-106275954D01*
X159891653Y-106275954D02*
X159891653Y-104775954D01*
X159891653Y-104775954D02*
X159748796Y-104990240D01*
X159748796Y-104990240D02*
X159605939Y-105133097D01*
X159605939Y-105133097D02*
X159463082Y-105204526D01*
X160963081Y-106133097D02*
X161034510Y-106204526D01*
X161034510Y-106204526D02*
X160963081Y-106275954D01*
X160963081Y-106275954D02*
X160891653Y-106204526D01*
X160891653Y-106204526D02*
X160963081Y-106133097D01*
X160963081Y-106133097D02*
X160963081Y-106275954D01*
X160963081Y-105347383D02*
X161034510Y-105418811D01*
X161034510Y-105418811D02*
X160963081Y-105490240D01*
X160963081Y-105490240D02*
X160891653Y-105418811D01*
X160891653Y-105418811D02*
X160963081Y-105347383D01*
X160963081Y-105347383D02*
X160963081Y-105490240D01*
X162820224Y-106275954D02*
X162820224Y-104775954D01*
X162820224Y-104775954D02*
X163320224Y-105847383D01*
X163320224Y-105847383D02*
X163820224Y-104775954D01*
X163820224Y-104775954D02*
X163820224Y-106275954D01*
X165391653Y-106133097D02*
X165320225Y-106204526D01*
X165320225Y-106204526D02*
X165105939Y-106275954D01*
X165105939Y-106275954D02*
X164963082Y-106275954D01*
X164963082Y-106275954D02*
X164748796Y-106204526D01*
X164748796Y-106204526D02*
X164605939Y-106061668D01*
X164605939Y-106061668D02*
X164534510Y-105918811D01*
X164534510Y-105918811D02*
X164463082Y-105633097D01*
X164463082Y-105633097D02*
X164463082Y-105418811D01*
X164463082Y-105418811D02*
X164534510Y-105133097D01*
X164534510Y-105133097D02*
X164605939Y-104990240D01*
X164605939Y-104990240D02*
X164748796Y-104847383D01*
X164748796Y-104847383D02*
X164963082Y-104775954D01*
X164963082Y-104775954D02*
X165105939Y-104775954D01*
X165105939Y-104775954D02*
X165320225Y-104847383D01*
X165320225Y-104847383D02*
X165391653Y-104918811D01*
X166034510Y-104775954D02*
X166034510Y-105990240D01*
X166034510Y-105990240D02*
X166105939Y-106133097D01*
X166105939Y-106133097D02*
X166177368Y-106204526D01*
X166177368Y-106204526D02*
X166320225Y-106275954D01*
X166320225Y-106275954D02*
X166605939Y-106275954D01*
X166605939Y-106275954D02*
X166748796Y-106204526D01*
X166748796Y-106204526D02*
X166820225Y-106133097D01*
X166820225Y-106133097D02*
X166891653Y-105990240D01*
X166891653Y-105990240D02*
X166891653Y-104775954D01*
X168534511Y-104775954D02*
X169391654Y-104775954D01*
X168963082Y-106275954D02*
X168963082Y-104775954D01*
X169748796Y-104775954D02*
X170748796Y-106275954D01*
X170748796Y-104775954D02*
X169748796Y-106275954D01*
X158034510Y-108690870D02*
X158034510Y-107190870D01*
X158034510Y-107190870D02*
X158391653Y-107190870D01*
X158391653Y-107190870D02*
X158605939Y-107262299D01*
X158605939Y-107262299D02*
X158748796Y-107405156D01*
X158748796Y-107405156D02*
X158820225Y-107548013D01*
X158820225Y-107548013D02*
X158891653Y-107833727D01*
X158891653Y-107833727D02*
X158891653Y-108048013D01*
X158891653Y-108048013D02*
X158820225Y-108333727D01*
X158820225Y-108333727D02*
X158748796Y-108476584D01*
X158748796Y-108476584D02*
X158605939Y-108619442D01*
X158605939Y-108619442D02*
X158391653Y-108690870D01*
X158391653Y-108690870D02*
X158034510Y-108690870D01*
X159463082Y-107333727D02*
X159534510Y-107262299D01*
X159534510Y-107262299D02*
X159677368Y-107190870D01*
X159677368Y-107190870D02*
X160034510Y-107190870D01*
X160034510Y-107190870D02*
X160177368Y-107262299D01*
X160177368Y-107262299D02*
X160248796Y-107333727D01*
X160248796Y-107333727D02*
X160320225Y-107476584D01*
X160320225Y-107476584D02*
X160320225Y-107619442D01*
X160320225Y-107619442D02*
X160248796Y-107833727D01*
X160248796Y-107833727D02*
X159391653Y-108690870D01*
X159391653Y-108690870D02*
X160320225Y-108690870D01*
X160963081Y-108548013D02*
X161034510Y-108619442D01*
X161034510Y-108619442D02*
X160963081Y-108690870D01*
X160963081Y-108690870D02*
X160891653Y-108619442D01*
X160891653Y-108619442D02*
X160963081Y-108548013D01*
X160963081Y-108548013D02*
X160963081Y-108690870D01*
X160963081Y-107762299D02*
X161034510Y-107833727D01*
X161034510Y-107833727D02*
X160963081Y-107905156D01*
X160963081Y-107905156D02*
X160891653Y-107833727D01*
X160891653Y-107833727D02*
X160963081Y-107762299D01*
X160963081Y-107762299D02*
X160963081Y-107905156D01*
X162820224Y-108690870D02*
X162820224Y-107190870D01*
X162820224Y-107190870D02*
X163677367Y-108690870D01*
X163677367Y-108690870D02*
X163677367Y-107190870D01*
X165248796Y-108690870D02*
X164748796Y-107976584D01*
X164391653Y-108690870D02*
X164391653Y-107190870D01*
X164391653Y-107190870D02*
X164963082Y-107190870D01*
X164963082Y-107190870D02*
X165105939Y-107262299D01*
X165105939Y-107262299D02*
X165177368Y-107333727D01*
X165177368Y-107333727D02*
X165248796Y-107476584D01*
X165248796Y-107476584D02*
X165248796Y-107690870D01*
X165248796Y-107690870D02*
X165177368Y-107833727D01*
X165177368Y-107833727D02*
X165105939Y-107905156D01*
X165105939Y-107905156D02*
X164963082Y-107976584D01*
X164963082Y-107976584D02*
X164391653Y-107976584D01*
X165820225Y-108619442D02*
X166034511Y-108690870D01*
X166034511Y-108690870D02*
X166391653Y-108690870D01*
X166391653Y-108690870D02*
X166534511Y-108619442D01*
X166534511Y-108619442D02*
X166605939Y-108548013D01*
X166605939Y-108548013D02*
X166677368Y-108405156D01*
X166677368Y-108405156D02*
X166677368Y-108262299D01*
X166677368Y-108262299D02*
X166605939Y-108119442D01*
X166605939Y-108119442D02*
X166534511Y-108048013D01*
X166534511Y-108048013D02*
X166391653Y-107976584D01*
X166391653Y-107976584D02*
X166105939Y-107905156D01*
X166105939Y-107905156D02*
X165963082Y-107833727D01*
X165963082Y-107833727D02*
X165891653Y-107762299D01*
X165891653Y-107762299D02*
X165820225Y-107619442D01*
X165820225Y-107619442D02*
X165820225Y-107476584D01*
X165820225Y-107476584D02*
X165891653Y-107333727D01*
X165891653Y-107333727D02*
X165963082Y-107262299D01*
X165963082Y-107262299D02*
X166105939Y-107190870D01*
X166105939Y-107190870D02*
X166463082Y-107190870D01*
X166463082Y-107190870D02*
X166677368Y-107262299D01*
X167105939Y-107190870D02*
X167963082Y-107190870D01*
X167534510Y-108690870D02*
X167534510Y-107190870D01*
X158034510Y-111105786D02*
X158034510Y-109605786D01*
X158034510Y-109605786D02*
X158391653Y-109605786D01*
X158391653Y-109605786D02*
X158605939Y-109677215D01*
X158605939Y-109677215D02*
X158748796Y-109820072D01*
X158748796Y-109820072D02*
X158820225Y-109962929D01*
X158820225Y-109962929D02*
X158891653Y-110248643D01*
X158891653Y-110248643D02*
X158891653Y-110462929D01*
X158891653Y-110462929D02*
X158820225Y-110748643D01*
X158820225Y-110748643D02*
X158748796Y-110891500D01*
X158748796Y-110891500D02*
X158605939Y-111034358D01*
X158605939Y-111034358D02*
X158391653Y-111105786D01*
X158391653Y-111105786D02*
X158034510Y-111105786D01*
X159391653Y-109605786D02*
X160320225Y-109605786D01*
X160320225Y-109605786D02*
X159820225Y-110177215D01*
X159820225Y-110177215D02*
X160034510Y-110177215D01*
X160034510Y-110177215D02*
X160177368Y-110248643D01*
X160177368Y-110248643D02*
X160248796Y-110320072D01*
X160248796Y-110320072D02*
X160320225Y-110462929D01*
X160320225Y-110462929D02*
X160320225Y-110820072D01*
X160320225Y-110820072D02*
X160248796Y-110962929D01*
X160248796Y-110962929D02*
X160177368Y-111034358D01*
X160177368Y-111034358D02*
X160034510Y-111105786D01*
X160034510Y-111105786D02*
X159605939Y-111105786D01*
X159605939Y-111105786D02*
X159463082Y-111034358D01*
X159463082Y-111034358D02*
X159391653Y-110962929D01*
X160963081Y-110962929D02*
X161034510Y-111034358D01*
X161034510Y-111034358D02*
X160963081Y-111105786D01*
X160963081Y-111105786D02*
X160891653Y-111034358D01*
X160891653Y-111034358D02*
X160963081Y-110962929D01*
X160963081Y-110962929D02*
X160963081Y-111105786D01*
X160963081Y-110177215D02*
X161034510Y-110248643D01*
X161034510Y-110248643D02*
X160963081Y-110320072D01*
X160963081Y-110320072D02*
X160891653Y-110248643D01*
X160891653Y-110248643D02*
X160963081Y-110177215D01*
X160963081Y-110177215D02*
X160963081Y-110320072D01*
X162820224Y-111105786D02*
X162820224Y-109605786D01*
X162820224Y-109605786D02*
X163391653Y-109605786D01*
X163391653Y-109605786D02*
X163534510Y-109677215D01*
X163534510Y-109677215D02*
X163605939Y-109748643D01*
X163605939Y-109748643D02*
X163677367Y-109891500D01*
X163677367Y-109891500D02*
X163677367Y-110105786D01*
X163677367Y-110105786D02*
X163605939Y-110248643D01*
X163605939Y-110248643D02*
X163534510Y-110320072D01*
X163534510Y-110320072D02*
X163391653Y-110391500D01*
X163391653Y-110391500D02*
X162820224Y-110391500D01*
X165177367Y-110962929D02*
X165105939Y-111034358D01*
X165105939Y-111034358D02*
X164891653Y-111105786D01*
X164891653Y-111105786D02*
X164748796Y-111105786D01*
X164748796Y-111105786D02*
X164534510Y-111034358D01*
X164534510Y-111034358D02*
X164391653Y-110891500D01*
X164391653Y-110891500D02*
X164320224Y-110748643D01*
X164320224Y-110748643D02*
X164248796Y-110462929D01*
X164248796Y-110462929D02*
X164248796Y-110248643D01*
X164248796Y-110248643D02*
X164320224Y-109962929D01*
X164320224Y-109962929D02*
X164391653Y-109820072D01*
X164391653Y-109820072D02*
X164534510Y-109677215D01*
X164534510Y-109677215D02*
X164748796Y-109605786D01*
X164748796Y-109605786D02*
X164891653Y-109605786D01*
X164891653Y-109605786D02*
X165105939Y-109677215D01*
X165105939Y-109677215D02*
X165177367Y-109748643D01*
X166105939Y-109605786D02*
X166248796Y-109605786D01*
X166248796Y-109605786D02*
X166391653Y-109677215D01*
X166391653Y-109677215D02*
X166463082Y-109748643D01*
X166463082Y-109748643D02*
X166534510Y-109891500D01*
X166534510Y-109891500D02*
X166605939Y-110177215D01*
X166605939Y-110177215D02*
X166605939Y-110534358D01*
X166605939Y-110534358D02*
X166534510Y-110820072D01*
X166534510Y-110820072D02*
X166463082Y-110962929D01*
X166463082Y-110962929D02*
X166391653Y-111034358D01*
X166391653Y-111034358D02*
X166248796Y-111105786D01*
X166248796Y-111105786D02*
X166105939Y-111105786D01*
X166105939Y-111105786D02*
X165963082Y-111034358D01*
X165963082Y-111034358D02*
X165891653Y-110962929D01*
X165891653Y-110962929D02*
X165820224Y-110820072D01*
X165820224Y-110820072D02*
X165748796Y-110534358D01*
X165748796Y-110534358D02*
X165748796Y-110177215D01*
X165748796Y-110177215D02*
X165820224Y-109891500D01*
X165820224Y-109891500D02*
X165891653Y-109748643D01*
X165891653Y-109748643D02*
X165963082Y-109677215D01*
X165963082Y-109677215D02*
X166105939Y-109605786D01*
X158034510Y-113520702D02*
X158034510Y-112020702D01*
X158034510Y-112020702D02*
X158391653Y-112020702D01*
X158391653Y-112020702D02*
X158605939Y-112092131D01*
X158605939Y-112092131D02*
X158748796Y-112234988D01*
X158748796Y-112234988D02*
X158820225Y-112377845D01*
X158820225Y-112377845D02*
X158891653Y-112663559D01*
X158891653Y-112663559D02*
X158891653Y-112877845D01*
X158891653Y-112877845D02*
X158820225Y-113163559D01*
X158820225Y-113163559D02*
X158748796Y-113306416D01*
X158748796Y-113306416D02*
X158605939Y-113449274D01*
X158605939Y-113449274D02*
X158391653Y-113520702D01*
X158391653Y-113520702D02*
X158034510Y-113520702D01*
X160177368Y-112020702D02*
X159891653Y-112020702D01*
X159891653Y-112020702D02*
X159748796Y-112092131D01*
X159748796Y-112092131D02*
X159677368Y-112163559D01*
X159677368Y-112163559D02*
X159534510Y-112377845D01*
X159534510Y-112377845D02*
X159463082Y-112663559D01*
X159463082Y-112663559D02*
X159463082Y-113234988D01*
X159463082Y-113234988D02*
X159534510Y-113377845D01*
X159534510Y-113377845D02*
X159605939Y-113449274D01*
X159605939Y-113449274D02*
X159748796Y-113520702D01*
X159748796Y-113520702D02*
X160034510Y-113520702D01*
X160034510Y-113520702D02*
X160177368Y-113449274D01*
X160177368Y-113449274D02*
X160248796Y-113377845D01*
X160248796Y-113377845D02*
X160320225Y-113234988D01*
X160320225Y-113234988D02*
X160320225Y-112877845D01*
X160320225Y-112877845D02*
X160248796Y-112734988D01*
X160248796Y-112734988D02*
X160177368Y-112663559D01*
X160177368Y-112663559D02*
X160034510Y-112592131D01*
X160034510Y-112592131D02*
X159748796Y-112592131D01*
X159748796Y-112592131D02*
X159605939Y-112663559D01*
X159605939Y-112663559D02*
X159534510Y-112734988D01*
X159534510Y-112734988D02*
X159463082Y-112877845D01*
X160963081Y-113377845D02*
X161034510Y-113449274D01*
X161034510Y-113449274D02*
X160963081Y-113520702D01*
X160963081Y-113520702D02*
X160891653Y-113449274D01*
X160891653Y-113449274D02*
X160963081Y-113377845D01*
X160963081Y-113377845D02*
X160963081Y-113520702D01*
X160963081Y-112592131D02*
X161034510Y-112663559D01*
X161034510Y-112663559D02*
X160963081Y-112734988D01*
X160963081Y-112734988D02*
X160891653Y-112663559D01*
X160891653Y-112663559D02*
X160963081Y-112592131D01*
X160963081Y-112592131D02*
X160963081Y-112734988D01*
X163320224Y-112734988D02*
X163534510Y-112806416D01*
X163534510Y-112806416D02*
X163605939Y-112877845D01*
X163605939Y-112877845D02*
X163677367Y-113020702D01*
X163677367Y-113020702D02*
X163677367Y-113234988D01*
X163677367Y-113234988D02*
X163605939Y-113377845D01*
X163605939Y-113377845D02*
X163534510Y-113449274D01*
X163534510Y-113449274D02*
X163391653Y-113520702D01*
X163391653Y-113520702D02*
X162820224Y-113520702D01*
X162820224Y-113520702D02*
X162820224Y-112020702D01*
X162820224Y-112020702D02*
X163320224Y-112020702D01*
X163320224Y-112020702D02*
X163463082Y-112092131D01*
X163463082Y-112092131D02*
X163534510Y-112163559D01*
X163534510Y-112163559D02*
X163605939Y-112306416D01*
X163605939Y-112306416D02*
X163605939Y-112449274D01*
X163605939Y-112449274D02*
X163534510Y-112592131D01*
X163534510Y-112592131D02*
X163463082Y-112663559D01*
X163463082Y-112663559D02*
X163320224Y-112734988D01*
X163320224Y-112734988D02*
X162820224Y-112734988D01*
X164605939Y-112020702D02*
X164891653Y-112020702D01*
X164891653Y-112020702D02*
X165034510Y-112092131D01*
X165034510Y-112092131D02*
X165177367Y-112234988D01*
X165177367Y-112234988D02*
X165248796Y-112520702D01*
X165248796Y-112520702D02*
X165248796Y-113020702D01*
X165248796Y-113020702D02*
X165177367Y-113306416D01*
X165177367Y-113306416D02*
X165034510Y-113449274D01*
X165034510Y-113449274D02*
X164891653Y-113520702D01*
X164891653Y-113520702D02*
X164605939Y-113520702D01*
X164605939Y-113520702D02*
X164463082Y-113449274D01*
X164463082Y-113449274D02*
X164320224Y-113306416D01*
X164320224Y-113306416D02*
X164248796Y-113020702D01*
X164248796Y-113020702D02*
X164248796Y-112520702D01*
X164248796Y-112520702D02*
X164320224Y-112234988D01*
X164320224Y-112234988D02*
X164463082Y-112092131D01*
X164463082Y-112092131D02*
X164605939Y-112020702D01*
X166177368Y-112020702D02*
X166463082Y-112020702D01*
X166463082Y-112020702D02*
X166605939Y-112092131D01*
X166605939Y-112092131D02*
X166748796Y-112234988D01*
X166748796Y-112234988D02*
X166820225Y-112520702D01*
X166820225Y-112520702D02*
X166820225Y-113020702D01*
X166820225Y-113020702D02*
X166748796Y-113306416D01*
X166748796Y-113306416D02*
X166605939Y-113449274D01*
X166605939Y-113449274D02*
X166463082Y-113520702D01*
X166463082Y-113520702D02*
X166177368Y-113520702D01*
X166177368Y-113520702D02*
X166034511Y-113449274D01*
X166034511Y-113449274D02*
X165891653Y-113306416D01*
X165891653Y-113306416D02*
X165820225Y-113020702D01*
X165820225Y-113020702D02*
X165820225Y-112520702D01*
X165820225Y-112520702D02*
X165891653Y-112234988D01*
X165891653Y-112234988D02*
X166034511Y-112092131D01*
X166034511Y-112092131D02*
X166177368Y-112020702D01*
X167248797Y-112020702D02*
X168105940Y-112020702D01*
X167677368Y-113520702D02*
X167677368Y-112020702D01*
X168891654Y-112020702D02*
X169034511Y-112020702D01*
X169034511Y-112020702D02*
X169177368Y-112092131D01*
X169177368Y-112092131D02*
X169248797Y-112163559D01*
X169248797Y-112163559D02*
X169320225Y-112306416D01*
X169320225Y-112306416D02*
X169391654Y-112592131D01*
X169391654Y-112592131D02*
X169391654Y-112949274D01*
X169391654Y-112949274D02*
X169320225Y-113234988D01*
X169320225Y-113234988D02*
X169248797Y-113377845D01*
X169248797Y-113377845D02*
X169177368Y-113449274D01*
X169177368Y-113449274D02*
X169034511Y-113520702D01*
X169034511Y-113520702D02*
X168891654Y-113520702D01*
X168891654Y-113520702D02*
X168748797Y-113449274D01*
X168748797Y-113449274D02*
X168677368Y-113377845D01*
X168677368Y-113377845D02*
X168605939Y-113234988D01*
X168605939Y-113234988D02*
X168534511Y-112949274D01*
X168534511Y-112949274D02*
X168534511Y-112592131D01*
X168534511Y-112592131D02*
X168605939Y-112306416D01*
X168605939Y-112306416D02*
X168677368Y-112163559D01*
X168677368Y-112163559D02*
X168748797Y-112092131D01*
X168748797Y-112092131D02*
X168891654Y-112020702D01*
X158034510Y-115935618D02*
X158034510Y-114435618D01*
X158034510Y-114435618D02*
X158391653Y-114435618D01*
X158391653Y-114435618D02*
X158605939Y-114507047D01*
X158605939Y-114507047D02*
X158748796Y-114649904D01*
X158748796Y-114649904D02*
X158820225Y-114792761D01*
X158820225Y-114792761D02*
X158891653Y-115078475D01*
X158891653Y-115078475D02*
X158891653Y-115292761D01*
X158891653Y-115292761D02*
X158820225Y-115578475D01*
X158820225Y-115578475D02*
X158748796Y-115721332D01*
X158748796Y-115721332D02*
X158605939Y-115864190D01*
X158605939Y-115864190D02*
X158391653Y-115935618D01*
X158391653Y-115935618D02*
X158034510Y-115935618D01*
X159391653Y-114435618D02*
X160391653Y-114435618D01*
X160391653Y-114435618D02*
X159748796Y-115935618D01*
X160963081Y-115792761D02*
X161034510Y-115864190D01*
X161034510Y-115864190D02*
X160963081Y-115935618D01*
X160963081Y-115935618D02*
X160891653Y-115864190D01*
X160891653Y-115864190D02*
X160963081Y-115792761D01*
X160963081Y-115792761D02*
X160963081Y-115935618D01*
X160963081Y-115007047D02*
X161034510Y-115078475D01*
X161034510Y-115078475D02*
X160963081Y-115149904D01*
X160963081Y-115149904D02*
X160891653Y-115078475D01*
X160891653Y-115078475D02*
X160963081Y-115007047D01*
X160963081Y-115007047D02*
X160963081Y-115149904D01*
X163320224Y-115149904D02*
X163534510Y-115221332D01*
X163534510Y-115221332D02*
X163605939Y-115292761D01*
X163605939Y-115292761D02*
X163677367Y-115435618D01*
X163677367Y-115435618D02*
X163677367Y-115649904D01*
X163677367Y-115649904D02*
X163605939Y-115792761D01*
X163605939Y-115792761D02*
X163534510Y-115864190D01*
X163534510Y-115864190D02*
X163391653Y-115935618D01*
X163391653Y-115935618D02*
X162820224Y-115935618D01*
X162820224Y-115935618D02*
X162820224Y-114435618D01*
X162820224Y-114435618D02*
X163320224Y-114435618D01*
X163320224Y-114435618D02*
X163463082Y-114507047D01*
X163463082Y-114507047D02*
X163534510Y-114578475D01*
X163534510Y-114578475D02*
X163605939Y-114721332D01*
X163605939Y-114721332D02*
X163605939Y-114864190D01*
X163605939Y-114864190D02*
X163534510Y-115007047D01*
X163534510Y-115007047D02*
X163463082Y-115078475D01*
X163463082Y-115078475D02*
X163320224Y-115149904D01*
X163320224Y-115149904D02*
X162820224Y-115149904D01*
X164605939Y-114435618D02*
X164891653Y-114435618D01*
X164891653Y-114435618D02*
X165034510Y-114507047D01*
X165034510Y-114507047D02*
X165177367Y-114649904D01*
X165177367Y-114649904D02*
X165248796Y-114935618D01*
X165248796Y-114935618D02*
X165248796Y-115435618D01*
X165248796Y-115435618D02*
X165177367Y-115721332D01*
X165177367Y-115721332D02*
X165034510Y-115864190D01*
X165034510Y-115864190D02*
X164891653Y-115935618D01*
X164891653Y-115935618D02*
X164605939Y-115935618D01*
X164605939Y-115935618D02*
X164463082Y-115864190D01*
X164463082Y-115864190D02*
X164320224Y-115721332D01*
X164320224Y-115721332D02*
X164248796Y-115435618D01*
X164248796Y-115435618D02*
X164248796Y-114935618D01*
X164248796Y-114935618D02*
X164320224Y-114649904D01*
X164320224Y-114649904D02*
X164463082Y-114507047D01*
X164463082Y-114507047D02*
X164605939Y-114435618D01*
X166177368Y-114435618D02*
X166463082Y-114435618D01*
X166463082Y-114435618D02*
X166605939Y-114507047D01*
X166605939Y-114507047D02*
X166748796Y-114649904D01*
X166748796Y-114649904D02*
X166820225Y-114935618D01*
X166820225Y-114935618D02*
X166820225Y-115435618D01*
X166820225Y-115435618D02*
X166748796Y-115721332D01*
X166748796Y-115721332D02*
X166605939Y-115864190D01*
X166605939Y-115864190D02*
X166463082Y-115935618D01*
X166463082Y-115935618D02*
X166177368Y-115935618D01*
X166177368Y-115935618D02*
X166034511Y-115864190D01*
X166034511Y-115864190D02*
X165891653Y-115721332D01*
X165891653Y-115721332D02*
X165820225Y-115435618D01*
X165820225Y-115435618D02*
X165820225Y-114935618D01*
X165820225Y-114935618D02*
X165891653Y-114649904D01*
X165891653Y-114649904D02*
X166034511Y-114507047D01*
X166034511Y-114507047D02*
X166177368Y-114435618D01*
X167248797Y-114435618D02*
X168105940Y-114435618D01*
X167677368Y-115935618D02*
X167677368Y-114435618D01*
X169391654Y-115935618D02*
X168534511Y-115935618D01*
X168963082Y-115935618D02*
X168963082Y-114435618D01*
X168963082Y-114435618D02*
X168820225Y-114649904D01*
X168820225Y-114649904D02*
X168677368Y-114792761D01*
X168677368Y-114792761D02*
X168534511Y-114864190D01*
X157057144Y-50136900D02*
X157271430Y-50208328D01*
X157271430Y-50208328D02*
X157628572Y-50208328D01*
X157628572Y-50208328D02*
X157771430Y-50136900D01*
X157771430Y-50136900D02*
X157842858Y-50065471D01*
X157842858Y-50065471D02*
X157914287Y-49922614D01*
X157914287Y-49922614D02*
X157914287Y-49779757D01*
X157914287Y-49779757D02*
X157842858Y-49636900D01*
X157842858Y-49636900D02*
X157771430Y-49565471D01*
X157771430Y-49565471D02*
X157628572Y-49494042D01*
X157628572Y-49494042D02*
X157342858Y-49422614D01*
X157342858Y-49422614D02*
X157200001Y-49351185D01*
X157200001Y-49351185D02*
X157128572Y-49279757D01*
X157128572Y-49279757D02*
X157057144Y-49136900D01*
X157057144Y-49136900D02*
X157057144Y-48994042D01*
X157057144Y-48994042D02*
X157128572Y-48851185D01*
X157128572Y-48851185D02*
X157200001Y-48779757D01*
X157200001Y-48779757D02*
X157342858Y-48708328D01*
X157342858Y-48708328D02*
X157700001Y-48708328D01*
X157700001Y-48708328D02*
X157914287Y-48779757D01*
X158342858Y-48708328D02*
X159200001Y-48708328D01*
X158771429Y-50208328D02*
X158771429Y-48708328D01*
X159700000Y-50208328D02*
X159700000Y-48708328D01*
X159700000Y-48708328D02*
X160200000Y-49779757D01*
X160200000Y-49779757D02*
X160700000Y-48708328D01*
X160700000Y-48708328D02*
X160700000Y-50208328D01*
X161271429Y-48708328D02*
X162200001Y-48708328D01*
X162200001Y-48708328D02*
X161700001Y-49279757D01*
X161700001Y-49279757D02*
X161914286Y-49279757D01*
X161914286Y-49279757D02*
X162057144Y-49351185D01*
X162057144Y-49351185D02*
X162128572Y-49422614D01*
X162128572Y-49422614D02*
X162200001Y-49565471D01*
X162200001Y-49565471D02*
X162200001Y-49922614D01*
X162200001Y-49922614D02*
X162128572Y-50065471D01*
X162128572Y-50065471D02*
X162057144Y-50136900D01*
X162057144Y-50136900D02*
X161914286Y-50208328D01*
X161914286Y-50208328D02*
X161485715Y-50208328D01*
X161485715Y-50208328D02*
X161342858Y-50136900D01*
X161342858Y-50136900D02*
X161271429Y-50065471D01*
X162771429Y-48851185D02*
X162842857Y-48779757D01*
X162842857Y-48779757D02*
X162985715Y-48708328D01*
X162985715Y-48708328D02*
X163342857Y-48708328D01*
X163342857Y-48708328D02*
X163485715Y-48779757D01*
X163485715Y-48779757D02*
X163557143Y-48851185D01*
X163557143Y-48851185D02*
X163628572Y-48994042D01*
X163628572Y-48994042D02*
X163628572Y-49136900D01*
X163628572Y-49136900D02*
X163557143Y-49351185D01*
X163557143Y-49351185D02*
X162700000Y-50208328D01*
X162700000Y-50208328D02*
X163628572Y-50208328D01*
X164985714Y-50208328D02*
X164271428Y-50208328D01*
X164271428Y-50208328D02*
X164271428Y-48708328D01*
X166128572Y-49208328D02*
X166128572Y-50208328D01*
X165771429Y-48636900D02*
X165414286Y-49708328D01*
X165414286Y-49708328D02*
X166342857Y-49708328D01*
X166771428Y-48708328D02*
X167771428Y-48708328D01*
X167771428Y-48708328D02*
X167128571Y-50208328D01*
X168985714Y-48708328D02*
X168699999Y-48708328D01*
X168699999Y-48708328D02*
X168557142Y-48779757D01*
X168557142Y-48779757D02*
X168485714Y-48851185D01*
X168485714Y-48851185D02*
X168342856Y-49065471D01*
X168342856Y-49065471D02*
X168271428Y-49351185D01*
X168271428Y-49351185D02*
X168271428Y-49922614D01*
X168271428Y-49922614D02*
X168342856Y-50065471D01*
X168342856Y-50065471D02*
X168414285Y-50136900D01*
X168414285Y-50136900D02*
X168557142Y-50208328D01*
X168557142Y-50208328D02*
X168842856Y-50208328D01*
X168842856Y-50208328D02*
X168985714Y-50136900D01*
X168985714Y-50136900D02*
X169057142Y-50065471D01*
X169057142Y-50065471D02*
X169128571Y-49922614D01*
X169128571Y-49922614D02*
X169128571Y-49565471D01*
X169128571Y-49565471D02*
X169057142Y-49422614D01*
X169057142Y-49422614D02*
X168985714Y-49351185D01*
X168985714Y-49351185D02*
X168842856Y-49279757D01*
X168842856Y-49279757D02*
X168557142Y-49279757D01*
X168557142Y-49279757D02*
X168414285Y-49351185D01*
X168414285Y-49351185D02*
X168342856Y-49422614D01*
X168342856Y-49422614D02*
X168271428Y-49565471D01*
X171914284Y-50351185D02*
X171771427Y-50279757D01*
X171771427Y-50279757D02*
X171628570Y-50136900D01*
X171628570Y-50136900D02*
X171414284Y-49922614D01*
X171414284Y-49922614D02*
X171271427Y-49851185D01*
X171271427Y-49851185D02*
X171128570Y-49851185D01*
X171199999Y-50208328D02*
X171057142Y-50136900D01*
X171057142Y-50136900D02*
X170914284Y-49994042D01*
X170914284Y-49994042D02*
X170842856Y-49708328D01*
X170842856Y-49708328D02*
X170842856Y-49208328D01*
X170842856Y-49208328D02*
X170914284Y-48922614D01*
X170914284Y-48922614D02*
X171057142Y-48779757D01*
X171057142Y-48779757D02*
X171199999Y-48708328D01*
X171199999Y-48708328D02*
X171485713Y-48708328D01*
X171485713Y-48708328D02*
X171628570Y-48779757D01*
X171628570Y-48779757D02*
X171771427Y-48922614D01*
X171771427Y-48922614D02*
X171842856Y-49208328D01*
X171842856Y-49208328D02*
X171842856Y-49708328D01*
X171842856Y-49708328D02*
X171771427Y-49994042D01*
X171771427Y-49994042D02*
X171628570Y-50136900D01*
X171628570Y-50136900D02*
X171485713Y-50208328D01*
X171485713Y-50208328D02*
X171199999Y-50208328D01*
X172985713Y-49422614D02*
X172485713Y-49422614D01*
X172485713Y-50208328D02*
X172485713Y-48708328D01*
X172485713Y-48708328D02*
X173199999Y-48708328D01*
X173771427Y-50208328D02*
X173771427Y-48708328D01*
X173771427Y-48708328D02*
X174342856Y-48708328D01*
X174342856Y-48708328D02*
X174485713Y-48779757D01*
X174485713Y-48779757D02*
X174557142Y-48851185D01*
X174557142Y-48851185D02*
X174628570Y-48994042D01*
X174628570Y-48994042D02*
X174628570Y-49208328D01*
X174628570Y-49208328D02*
X174557142Y-49351185D01*
X174557142Y-49351185D02*
X174485713Y-49422614D01*
X174485713Y-49422614D02*
X174342856Y-49494042D01*
X174342856Y-49494042D02*
X173771427Y-49494042D01*
X175914285Y-48708328D02*
X175628570Y-48708328D01*
X175628570Y-48708328D02*
X175485713Y-48779757D01*
X175485713Y-48779757D02*
X175414285Y-48851185D01*
X175414285Y-48851185D02*
X175271427Y-49065471D01*
X175271427Y-49065471D02*
X175199999Y-49351185D01*
X175199999Y-49351185D02*
X175199999Y-49922614D01*
X175199999Y-49922614D02*
X175271427Y-50065471D01*
X175271427Y-50065471D02*
X175342856Y-50136900D01*
X175342856Y-50136900D02*
X175485713Y-50208328D01*
X175485713Y-50208328D02*
X175771427Y-50208328D01*
X175771427Y-50208328D02*
X175914285Y-50136900D01*
X175914285Y-50136900D02*
X175985713Y-50065471D01*
X175985713Y-50065471D02*
X176057142Y-49922614D01*
X176057142Y-49922614D02*
X176057142Y-49565471D01*
X176057142Y-49565471D02*
X175985713Y-49422614D01*
X175985713Y-49422614D02*
X175914285Y-49351185D01*
X175914285Y-49351185D02*
X175771427Y-49279757D01*
X175771427Y-49279757D02*
X175485713Y-49279757D01*
X175485713Y-49279757D02*
X175342856Y-49351185D01*
X175342856Y-49351185D02*
X175271427Y-49422614D01*
X175271427Y-49422614D02*
X175199999Y-49565471D01*
X177342856Y-49208328D02*
X177342856Y-50208328D01*
X176985713Y-48636900D02*
X176628570Y-49708328D01*
X176628570Y-49708328D02*
X177557141Y-49708328D01*
X179199998Y-50136900D02*
X179342855Y-50208328D01*
X179342855Y-50208328D02*
X179628569Y-50208328D01*
X179628569Y-50208328D02*
X179771426Y-50136900D01*
X179771426Y-50136900D02*
X179842855Y-49994042D01*
X179842855Y-49994042D02*
X179842855Y-49922614D01*
X179842855Y-49922614D02*
X179771426Y-49779757D01*
X179771426Y-49779757D02*
X179628569Y-49708328D01*
X179628569Y-49708328D02*
X179414284Y-49708328D01*
X179414284Y-49708328D02*
X179271426Y-49636900D01*
X179271426Y-49636900D02*
X179199998Y-49494042D01*
X179199998Y-49494042D02*
X179199998Y-49422614D01*
X179199998Y-49422614D02*
X179271426Y-49279757D01*
X179271426Y-49279757D02*
X179414284Y-49208328D01*
X179414284Y-49208328D02*
X179628569Y-49208328D01*
X179628569Y-49208328D02*
X179771426Y-49279757D01*
X180699998Y-50208328D02*
X180557141Y-50136900D01*
X180557141Y-50136900D02*
X180485712Y-50065471D01*
X180485712Y-50065471D02*
X180414284Y-49922614D01*
X180414284Y-49922614D02*
X180414284Y-49494042D01*
X180414284Y-49494042D02*
X180485712Y-49351185D01*
X180485712Y-49351185D02*
X180557141Y-49279757D01*
X180557141Y-49279757D02*
X180699998Y-49208328D01*
X180699998Y-49208328D02*
X180914284Y-49208328D01*
X180914284Y-49208328D02*
X181057141Y-49279757D01*
X181057141Y-49279757D02*
X181128570Y-49351185D01*
X181128570Y-49351185D02*
X181199998Y-49494042D01*
X181199998Y-49494042D02*
X181199998Y-49922614D01*
X181199998Y-49922614D02*
X181128570Y-50065471D01*
X181128570Y-50065471D02*
X181057141Y-50136900D01*
X181057141Y-50136900D02*
X180914284Y-50208328D01*
X180914284Y-50208328D02*
X180699998Y-50208328D01*
X182485713Y-50136900D02*
X182342855Y-50208328D01*
X182342855Y-50208328D02*
X182057141Y-50208328D01*
X182057141Y-50208328D02*
X181914284Y-50136900D01*
X181914284Y-50136900D02*
X181842855Y-50065471D01*
X181842855Y-50065471D02*
X181771427Y-49922614D01*
X181771427Y-49922614D02*
X181771427Y-49494042D01*
X181771427Y-49494042D02*
X181842855Y-49351185D01*
X181842855Y-49351185D02*
X181914284Y-49279757D01*
X181914284Y-49279757D02*
X182057141Y-49208328D01*
X182057141Y-49208328D02*
X182342855Y-49208328D01*
X182342855Y-49208328D02*
X182485713Y-49279757D01*
X183128569Y-50208328D02*
X183128569Y-48708328D01*
X183271427Y-49636900D02*
X183699998Y-50208328D01*
X183699998Y-49208328D02*
X183128569Y-49779757D01*
X184914284Y-50136900D02*
X184771427Y-50208328D01*
X184771427Y-50208328D02*
X184485713Y-50208328D01*
X184485713Y-50208328D02*
X184342855Y-50136900D01*
X184342855Y-50136900D02*
X184271427Y-49994042D01*
X184271427Y-49994042D02*
X184271427Y-49422614D01*
X184271427Y-49422614D02*
X184342855Y-49279757D01*
X184342855Y-49279757D02*
X184485713Y-49208328D01*
X184485713Y-49208328D02*
X184771427Y-49208328D01*
X184771427Y-49208328D02*
X184914284Y-49279757D01*
X184914284Y-49279757D02*
X184985713Y-49422614D01*
X184985713Y-49422614D02*
X184985713Y-49565471D01*
X184985713Y-49565471D02*
X184271427Y-49708328D01*
X185414284Y-49208328D02*
X185985712Y-49208328D01*
X185628569Y-48708328D02*
X185628569Y-49994042D01*
X185628569Y-49994042D02*
X185699998Y-50136900D01*
X185699998Y-50136900D02*
X185842855Y-50208328D01*
X185842855Y-50208328D02*
X185985712Y-50208328D01*
X156892572Y-70528328D02*
X156035429Y-70528328D01*
X156464000Y-70528328D02*
X156464000Y-69028328D01*
X156464000Y-69028328D02*
X156321143Y-69242614D01*
X156321143Y-69242614D02*
X156178286Y-69385471D01*
X156178286Y-69385471D02*
X156035429Y-69456900D01*
D10*
X170688095Y-68524819D02*
X170688095Y-69334342D01*
X170688095Y-69334342D02*
X170735714Y-69429580D01*
X170735714Y-69429580D02*
X170783333Y-69477200D01*
X170783333Y-69477200D02*
X170878571Y-69524819D01*
X170878571Y-69524819D02*
X171069047Y-69524819D01*
X171069047Y-69524819D02*
X171164285Y-69477200D01*
X171164285Y-69477200D02*
X171211904Y-69429580D01*
X171211904Y-69429580D02*
X171259523Y-69334342D01*
X171259523Y-69334342D02*
X171259523Y-68524819D01*
X172259523Y-69524819D02*
X171688095Y-69524819D01*
X171973809Y-69524819D02*
X171973809Y-68524819D01*
X171973809Y-68524819D02*
X171878571Y-68667676D01*
X171878571Y-68667676D02*
X171783333Y-68762914D01*
X171783333Y-68762914D02*
X171688095Y-68810533D01*
X161538809Y-60938628D02*
X161538809Y-61414819D01*
X161205476Y-60414819D02*
X161538809Y-60938628D01*
X161538809Y-60938628D02*
X161872142Y-60414819D01*
X162729285Y-61414819D02*
X162157857Y-61414819D01*
X162443571Y-61414819D02*
X162443571Y-60414819D01*
X162443571Y-60414819D02*
X162348333Y-60557676D01*
X162348333Y-60557676D02*
X162253095Y-60652914D01*
X162253095Y-60652914D02*
X162157857Y-60700533D01*
X184950000Y-97320000D02*
X157950000Y-97320000D01*
X184950000Y-70320000D02*
X184950000Y-97320000D01*
X157950000Y-97320000D02*
X157950000Y-70320000D01*
X157950000Y-71320000D02*
X158950000Y-70320000D01*
X157950000Y-70320000D02*
X184950000Y-70320000D01*
D12*
X165140000Y-67295000D02*
X158890000Y-67295000D01*
X165140000Y-62245000D02*
X158890000Y-62245000D01*
X165140000Y-62245000D02*
G75*
G02*
X165140000Y-67295000I0J-2525000D01*
G01*
X158890000Y-67295000D02*
G75*
G02*
X158890000Y-62245000I0J2525000D01*
G01*
M02*
