G04 #@! TF.GenerationSoftware,KiCad,Pcbnew,8.0.0-8.0.0-1~ubuntu20.04.1*
G04 #@! TF.CreationDate,2024-03-05T18:45:29+01:00*
G04 #@! TF.ProjectId,stm32l476,73746d33-326c-4343-9736-2e6b69636164,rev?*
G04 #@! TF.SameCoordinates,Original*
G04 #@! TF.FileFunction,Copper,L1,Top*
G04 #@! TF.FilePolarity,Positive*
%FSLAX46Y46*%
G04 Gerber Fmt 4.6, Leading zero omitted, Abs format (unit mm)*
G04 Created by KiCad (PCBNEW 8.0.0-8.0.0-1~ubuntu20.04.1) date 2024-03-05 18:45:29*
%MOMM*%
%LPD*%
G01*
G04 APERTURE LIST*
G04 #@! TA.AperFunction,ComponentPad*
%ADD10C,1.200000*%
G04 #@! TD*
G04 #@! TA.AperFunction,ComponentPad*
%ADD11C,1.600000*%
G04 #@! TD*
G04 #@! TA.AperFunction,ComponentPad*
%ADD12C,3.250000*%
G04 #@! TD*
G04 #@! TA.AperFunction,ComponentPad*
%ADD13R,2.000000X2.000000*%
G04 #@! TD*
G04 #@! TA.AperFunction,ComponentPad*
%ADD14C,1.500000*%
G04 #@! TD*
G04 #@! TA.AperFunction,ComponentPad*
%ADD15R,1.700000X1.700000*%
G04 #@! TD*
G04 #@! TA.AperFunction,ComponentPad*
%ADD16O,1.700000X1.700000*%
G04 #@! TD*
G04 #@! TA.AperFunction,ViaPad*
%ADD17C,0.800000*%
G04 #@! TD*
G04 #@! TA.AperFunction,Conductor*
%ADD18C,0.250000*%
G04 #@! TD*
G04 #@! TA.AperFunction,Conductor*
%ADD19C,1.000000*%
G04 #@! TD*
G04 APERTURE END LIST*
D10*
X159800000Y-80070000D03*
X163800000Y-80570000D03*
X161800000Y-81070000D03*
X159800000Y-81570000D03*
X163800000Y-82070000D03*
X161800000Y-82570000D03*
X159800000Y-83070000D03*
X163800000Y-83570000D03*
X161800000Y-84070000D03*
X159800000Y-84570000D03*
X163800000Y-85070000D03*
X161800000Y-85570000D03*
X159800000Y-86070000D03*
X163800000Y-86570000D03*
X161800000Y-87070000D03*
X159800000Y-87570000D03*
X167700000Y-93470000D03*
X168200000Y-95470000D03*
X168700000Y-91470000D03*
X169200000Y-93470000D03*
X169700000Y-95470000D03*
X170200000Y-91470000D03*
X170700000Y-93470000D03*
X171200000Y-95470000D03*
X171700000Y-91470000D03*
X172200000Y-93470000D03*
X172700000Y-95470000D03*
X173200000Y-91470000D03*
X173700000Y-93470000D03*
X174200000Y-95470000D03*
X174700000Y-91470000D03*
X175200000Y-93470000D03*
X179100000Y-87570000D03*
X181100000Y-87070000D03*
X183100000Y-86570000D03*
X179100000Y-86070000D03*
X181100000Y-85570000D03*
X183100000Y-85070000D03*
X179100000Y-84570000D03*
X181100000Y-84070000D03*
X183100000Y-83570000D03*
X179100000Y-83070000D03*
X181100000Y-82570000D03*
X183100000Y-82070000D03*
X179100000Y-81570000D03*
X181100000Y-81070000D03*
X183100000Y-80570000D03*
X179100000Y-80070000D03*
X175200000Y-74170000D03*
X174700000Y-72170000D03*
X174200000Y-76170000D03*
X173700000Y-74170000D03*
X173200000Y-72170000D03*
X172700000Y-76170000D03*
X172200000Y-74170000D03*
X171700000Y-72170000D03*
X171200000Y-76170000D03*
X170700000Y-74170000D03*
X170200000Y-72170000D03*
X169700000Y-76170000D03*
X169200000Y-74170000D03*
X168700000Y-72170000D03*
X168200000Y-76170000D03*
X167700000Y-74170000D03*
D11*
X178150000Y-77120000D03*
D12*
X171450000Y-83820000D03*
D11*
X164750000Y-90520000D03*
D13*
X185420000Y-53340000D03*
X170180000Y-55880000D03*
X182880000Y-53340000D03*
X175260000Y-66040000D03*
X172720000Y-55880000D03*
X180340000Y-53340000D03*
X170180000Y-66040000D03*
X177800000Y-66040000D03*
X175260000Y-55880000D03*
X177800000Y-53340000D03*
X172720000Y-66040000D03*
X180340000Y-66040000D03*
X177800000Y-63500000D03*
X177800000Y-55880000D03*
X175260000Y-53340000D03*
X185420000Y-66040000D03*
X182880000Y-66040000D03*
X180340000Y-63500000D03*
X180340000Y-55880000D03*
X172720000Y-53340000D03*
X170180000Y-63500000D03*
X175260000Y-63500000D03*
X170180000Y-60960000D03*
X182880000Y-55880000D03*
X170180000Y-53340000D03*
X172720000Y-63500000D03*
X182880000Y-63500000D03*
X175260000Y-60960000D03*
X185420000Y-55880000D03*
X170180000Y-58420000D03*
X180340000Y-60960000D03*
X185420000Y-63500000D03*
X177800000Y-60960000D03*
X177800000Y-58420000D03*
X172720000Y-58420000D03*
X182880000Y-60960000D03*
X172720000Y-60960000D03*
X182880000Y-58420000D03*
X175260000Y-58420000D03*
X185420000Y-60960000D03*
X185420000Y-58420000D03*
X180340000Y-58420000D03*
D14*
X164465000Y-64770000D03*
X159565000Y-64770000D03*
D15*
X160020000Y-124460000D03*
D16*
X160020000Y-121920000D03*
X162560000Y-124460000D03*
X162560000Y-121920000D03*
X165100000Y-124460000D03*
X165100000Y-121920000D03*
X167640000Y-124460000D03*
X167640000Y-121920000D03*
X170180000Y-124460000D03*
X170180000Y-121920000D03*
X172720000Y-124460000D03*
X172720000Y-121920000D03*
X175260000Y-124460000D03*
X175260000Y-121920000D03*
X177800000Y-124460000D03*
X177800000Y-121920000D03*
X180340000Y-124460000D03*
X180340000Y-121920000D03*
X182880000Y-124460000D03*
X182880000Y-121920000D03*
D15*
X160020000Y-45720000D03*
D16*
X160020000Y-43180000D03*
X162560000Y-45720000D03*
X162560000Y-43180000D03*
X165100000Y-45720000D03*
X165100000Y-43180000D03*
X167640000Y-45720000D03*
X167640000Y-43180000D03*
X170180000Y-45720000D03*
X170180000Y-43180000D03*
X172720000Y-45720000D03*
X172720000Y-43180000D03*
X175260000Y-45720000D03*
X175260000Y-43180000D03*
X177800000Y-45720000D03*
X177800000Y-43180000D03*
X180340000Y-45720000D03*
X180340000Y-43180000D03*
X182880000Y-45720000D03*
X182880000Y-43180000D03*
D17*
X162052000Y-68580000D03*
D18*
X165925000Y-91006701D02*
X161834999Y-95096702D01*
X165925000Y-81386852D02*
X165925000Y-91006701D01*
X161800000Y-84070000D02*
X162875000Y-82995000D01*
X161834999Y-118654999D02*
X165100000Y-121920000D01*
X162875000Y-82995000D02*
X162875000Y-80186852D01*
X164183148Y-79645000D02*
X165925000Y-81386852D01*
X162875000Y-80186852D02*
X163416852Y-79645000D01*
X161834999Y-95096702D02*
X161834999Y-118654999D01*
X163416852Y-79645000D02*
X164183148Y-79645000D01*
X166774999Y-91160605D02*
X166774999Y-79095001D01*
X167640000Y-121920000D02*
X165100000Y-119380000D01*
X165100000Y-92835604D02*
X166774999Y-91160605D01*
X165100000Y-119380000D02*
X165100000Y-92835604D01*
X166774999Y-79095001D02*
X169700000Y-76170000D01*
D19*
X184912000Y-113030528D02*
X168200000Y-96318528D01*
X182880000Y-124460000D02*
X184912000Y-122428000D01*
X168200000Y-76170000D02*
X167351472Y-76170000D01*
X168200000Y-96318528D02*
X168200000Y-95470000D01*
X167351472Y-76170000D02*
X162052000Y-70870528D01*
X184912000Y-122428000D02*
X184912000Y-113030528D01*
X162052000Y-70870528D02*
X162052000Y-68580000D01*
D18*
X172154000Y-90424000D02*
X172600001Y-90870001D01*
X168815001Y-123284999D02*
X168815001Y-121063001D01*
X166624000Y-118872000D02*
X166624000Y-91948000D01*
X172600001Y-90870001D02*
X173200000Y-91470000D01*
X168148000Y-90424000D02*
X172154000Y-90424000D01*
X166624000Y-91948000D02*
X168148000Y-90424000D01*
X167640000Y-124460000D02*
X168815001Y-123284999D01*
X168815001Y-121063001D02*
X166624000Y-118872000D01*
X161710001Y-123610001D02*
X162560000Y-124460000D01*
X161384999Y-123284999D02*
X161710001Y-123610001D01*
X161384999Y-92219999D02*
X161384999Y-123284999D01*
X163800000Y-83570000D02*
X164725001Y-84495001D01*
X164725001Y-84495001D02*
X164725001Y-88879997D01*
X164725001Y-88879997D02*
X161384999Y-92219999D01*
M02*
