G04 #@! TF.GenerationSoftware,KiCad,Pcbnew,8.0.0-8.0.0-1~ubuntu20.04.1*
G04 #@! TF.CreationDate,2024-03-05T18:45:30+01:00*
G04 #@! TF.ProjectId,stm32l476,73746d33-326c-4343-9736-2e6b69636164,rev?*
G04 #@! TF.SameCoordinates,Original*
G04 #@! TF.FileFunction,Legend,Bot*
G04 #@! TF.FilePolarity,Positive*
%FSLAX46Y46*%
G04 Gerber Fmt 4.6, Leading zero omitted, Abs format (unit mm)*
G04 Created by KiCad (PCBNEW 8.0.0-8.0.0-1~ubuntu20.04.1) date 2024-03-05 18:45:30*
%MOMM*%
%LPD*%
G01*
G04 APERTURE LIST*
%ADD10C,0.150000*%
%ADD11C,0.120000*%
G04 APERTURE END LIST*
D10*
X156704819Y-122856666D02*
X157419104Y-122856666D01*
X157419104Y-122856666D02*
X157561961Y-122809047D01*
X157561961Y-122809047D02*
X157657200Y-122713809D01*
X157657200Y-122713809D02*
X157704819Y-122570952D01*
X157704819Y-122570952D02*
X157704819Y-122475714D01*
X157704819Y-123856666D02*
X157704819Y-123285238D01*
X157704819Y-123570952D02*
X156704819Y-123570952D01*
X156704819Y-123570952D02*
X156847676Y-123475714D01*
X156847676Y-123475714D02*
X156942914Y-123380476D01*
X156942914Y-123380476D02*
X156990533Y-123285238D01*
X156704819Y-44116666D02*
X157419104Y-44116666D01*
X157419104Y-44116666D02*
X157561961Y-44069047D01*
X157561961Y-44069047D02*
X157657200Y-43973809D01*
X157657200Y-43973809D02*
X157704819Y-43830952D01*
X157704819Y-43830952D02*
X157704819Y-43735714D01*
X156800057Y-44545238D02*
X156752438Y-44592857D01*
X156752438Y-44592857D02*
X156704819Y-44688095D01*
X156704819Y-44688095D02*
X156704819Y-44926190D01*
X156704819Y-44926190D02*
X156752438Y-45021428D01*
X156752438Y-45021428D02*
X156800057Y-45069047D01*
X156800057Y-45069047D02*
X156895295Y-45116666D01*
X156895295Y-45116666D02*
X156990533Y-45116666D01*
X156990533Y-45116666D02*
X157133390Y-45069047D01*
X157133390Y-45069047D02*
X157704819Y-44497619D01*
X157704819Y-44497619D02*
X157704819Y-45116666D01*
X160821666Y-92179580D02*
X160869285Y-92227200D01*
X160869285Y-92227200D02*
X161012142Y-92274819D01*
X161012142Y-92274819D02*
X161107380Y-92274819D01*
X161107380Y-92274819D02*
X161250237Y-92227200D01*
X161250237Y-92227200D02*
X161345475Y-92131961D01*
X161345475Y-92131961D02*
X161393094Y-92036723D01*
X161393094Y-92036723D02*
X161440713Y-91846247D01*
X161440713Y-91846247D02*
X161440713Y-91703390D01*
X161440713Y-91703390D02*
X161393094Y-91512914D01*
X161393094Y-91512914D02*
X161345475Y-91417676D01*
X161345475Y-91417676D02*
X161250237Y-91322438D01*
X161250237Y-91322438D02*
X161107380Y-91274819D01*
X161107380Y-91274819D02*
X161012142Y-91274819D01*
X161012142Y-91274819D02*
X160869285Y-91322438D01*
X160869285Y-91322438D02*
X160821666Y-91370057D01*
X159869285Y-92274819D02*
X160440713Y-92274819D01*
X160154999Y-92274819D02*
X160154999Y-91274819D01*
X160154999Y-91274819D02*
X160250237Y-91417676D01*
X160250237Y-91417676D02*
X160345475Y-91512914D01*
X160345475Y-91512914D02*
X160440713Y-91560533D01*
X160186666Y-67288580D02*
X160234285Y-67336200D01*
X160234285Y-67336200D02*
X160377142Y-67383819D01*
X160377142Y-67383819D02*
X160472380Y-67383819D01*
X160472380Y-67383819D02*
X160615237Y-67336200D01*
X160615237Y-67336200D02*
X160710475Y-67240961D01*
X160710475Y-67240961D02*
X160758094Y-67145723D01*
X160758094Y-67145723D02*
X160805713Y-66955247D01*
X160805713Y-66955247D02*
X160805713Y-66812390D01*
X160805713Y-66812390D02*
X160758094Y-66621914D01*
X160758094Y-66621914D02*
X160710475Y-66526676D01*
X160710475Y-66526676D02*
X160615237Y-66431438D01*
X160615237Y-66431438D02*
X160472380Y-66383819D01*
X160472380Y-66383819D02*
X160377142Y-66383819D01*
X160377142Y-66383819D02*
X160234285Y-66431438D01*
X160234285Y-66431438D02*
X160186666Y-66479057D01*
X159853332Y-66383819D02*
X159234285Y-66383819D01*
X159234285Y-66383819D02*
X159567618Y-66764771D01*
X159567618Y-66764771D02*
X159424761Y-66764771D01*
X159424761Y-66764771D02*
X159329523Y-66812390D01*
X159329523Y-66812390D02*
X159281904Y-66860009D01*
X159281904Y-66860009D02*
X159234285Y-66955247D01*
X159234285Y-66955247D02*
X159234285Y-67193342D01*
X159234285Y-67193342D02*
X159281904Y-67288580D01*
X159281904Y-67288580D02*
X159329523Y-67336200D01*
X159329523Y-67336200D02*
X159424761Y-67383819D01*
X159424761Y-67383819D02*
X159710475Y-67383819D01*
X159710475Y-67383819D02*
X159805713Y-67336200D01*
X159805713Y-67336200D02*
X159853332Y-67288580D01*
X163996666Y-67288580D02*
X164044285Y-67336200D01*
X164044285Y-67336200D02*
X164187142Y-67383819D01*
X164187142Y-67383819D02*
X164282380Y-67383819D01*
X164282380Y-67383819D02*
X164425237Y-67336200D01*
X164425237Y-67336200D02*
X164520475Y-67240961D01*
X164520475Y-67240961D02*
X164568094Y-67145723D01*
X164568094Y-67145723D02*
X164615713Y-66955247D01*
X164615713Y-66955247D02*
X164615713Y-66812390D01*
X164615713Y-66812390D02*
X164568094Y-66621914D01*
X164568094Y-66621914D02*
X164520475Y-66526676D01*
X164520475Y-66526676D02*
X164425237Y-66431438D01*
X164425237Y-66431438D02*
X164282380Y-66383819D01*
X164282380Y-66383819D02*
X164187142Y-66383819D01*
X164187142Y-66383819D02*
X164044285Y-66431438D01*
X164044285Y-66431438D02*
X163996666Y-66479057D01*
X163615713Y-66479057D02*
X163568094Y-66431438D01*
X163568094Y-66431438D02*
X163472856Y-66383819D01*
X163472856Y-66383819D02*
X163234761Y-66383819D01*
X163234761Y-66383819D02*
X163139523Y-66431438D01*
X163139523Y-66431438D02*
X163091904Y-66479057D01*
X163091904Y-66479057D02*
X163044285Y-66574295D01*
X163044285Y-66574295D02*
X163044285Y-66669533D01*
X163044285Y-66669533D02*
X163091904Y-66812390D01*
X163091904Y-66812390D02*
X163663332Y-67383819D01*
X163663332Y-67383819D02*
X163044285Y-67383819D01*
D11*
X184210000Y-120590000D02*
X184210000Y-125790000D01*
X158690000Y-120590000D02*
X184210000Y-120590000D01*
X158690000Y-120590000D02*
X158690000Y-123190000D01*
X161290000Y-123190000D02*
X161290000Y-125790000D01*
X158690000Y-123190000D02*
X161290000Y-123190000D01*
X158690000Y-124460000D02*
X158690000Y-125790000D01*
X161290000Y-125790000D02*
X184210000Y-125790000D01*
X158690000Y-125790000D02*
X160020000Y-125790000D01*
X184210000Y-41850000D02*
X184210000Y-47050000D01*
X158690000Y-41850000D02*
X184210000Y-41850000D01*
X158690000Y-41850000D02*
X158690000Y-44450000D01*
X161290000Y-44450000D02*
X161290000Y-47050000D01*
X158690000Y-44450000D02*
X161290000Y-44450000D01*
X158690000Y-45720000D02*
X158690000Y-47050000D01*
X161290000Y-47050000D02*
X184210000Y-47050000D01*
X158690000Y-47050000D02*
X160020000Y-47050000D01*
X160396422Y-89460000D02*
X160913578Y-89460000D01*
X160396422Y-90880000D02*
X160913578Y-90880000D01*
X160278578Y-69290000D02*
X159761422Y-69290000D01*
X160278578Y-67870000D02*
X159761422Y-67870000D01*
X163571422Y-67870000D02*
X164088578Y-67870000D01*
X163571422Y-69290000D02*
X164088578Y-69290000D01*
M02*
